<?xml version="1.0" encoding="utf-8"?><svg viewBox="0 0 102 110" xmlns="http://www.w3.org/2000/svg" xmlns:xlink="http://www.w3.org/1999/xlink"><style>:root>svg{display:none}:root>svg:target{display:block}</style><svg fill="none" viewBox="0 0 13 7" id="arrow-down" xmlns="http://www.w3.org/2000/svg"><path fill-rule="evenodd" clip-rule="evenodd" d="M11.757 1.914A1.121 1.121 0 1 0 10.171.328l-4.128 4.13L1.914.327A1.121 1.121 0 0 0 .328 1.916l4.758 4.757c.26.261.619.367.958.316.339.05.695-.056.956-.317l4.757-4.757Z" fill="#99A3AB"/></svg><svg viewBox="0 0 11 8" id="check" xmlns="http://www.w3.org/2000/svg"><defs><clipPath id="ba"><path fill="#fff" d="M0 0h11v8H0z"/></clipPath></defs><g clip-path="url(#ba)"><path d="M10.707.293a1 1 0 0 1 0 1.414l-6 6a1 1 0 0 1-1.414 0l-3-3a1 1 0 0 1 1.414-1.414L4 5.586 9.293.293a1 1 0 0 1 1.414 0" fill="#fff" fill-rule="evenodd"/></g></svg><svg fill="none" viewBox="0 0 24 24" id="clock" xmlns="http://www.w3.org/2000/svg"><path d="M12 0a12 12 0 1 0 12 12A12.013 12.013 0 0 0 12 0Zm0 22a10 10 0 1 1 10-10 10.011 10.011 0 0 1-10 10Z" fill="#01BDE0"/><path d="M13 11.586V6a1 1 0 0 0-2 0v6a1 1 0 0 0 .293.707l3 3a1 1 0 0 0 1.414-1.414L13 11.586Z" fill="#01BDE0"/></svg><svg viewBox="0 0 6.875 6.875" id="close" xmlns="http://www.w3.org/2000/svg"><defs><clipPath id="da"><path d="M0 0h6.875v6.875H0z"/></clipPath></defs><g clip-path="url(#da)"><path d="M.2.2a.687.687 0 0 1 .972 0l2.265 2.265L5.7.2a.687.687 0 0 1 .972.972L4.41 3.437 6.673 5.7a.687.687 0 0 1-.972.972L3.437 4.41 1.173 6.673A.688.688 0 0 1 .2 5.7l2.265-2.263L.2 1.173A.687.687 0 0 1 .2.2"/></g></svg><svg fill="none" viewBox="0 0 26 18" id="email" xmlns="http://www.w3.org/2000/svg"><path d="M25 6a1 1 0 0 0-1 1v8a1 1 0 0 1-1 1H3a1 1 0 0 1-1-1V7a1 1 0 0 0-2 0v8a3 3 0 0 0 .88 2.12A3 3 0 0 0 3 18h20a3 3 0 0 0 2.12-.88A3 3 0 0 0 26 15V7a1 1 0 0 0-1-1Z" fill="#01BDE0"/><path d="M12.4 11.8a1 1 0 0 0 1.2 0l11.81-8.86a1 1 0 0 0 .3-1.23 3.063 3.063 0 0 0-.59-.83A3 3 0 0 0 23 0H3A3 3 0 0 0 .88.88a3.06 3.06 0 0 0-.59.83 1 1 0 0 0 .3 1.23L12.4 11.8ZM3 2h20a.9.9 0 0 1 .28 0L13 9.75 2.72 2A.9.9 0 0 1 3 2Z" fill="#01BDE0"/></svg><svg viewBox="0 0 7 15" id="facebook" xmlns="http://www.w3.org/2000/svg"><path d="M7 4.857H4.616V3.3c0-.584.39-.72.663-.72h1.683V.008L4.645 0C2.073 0 1.487 1.917 1.487 3.144v1.713H0v2.649h1.487V15h3.13V7.506h2.11L7 4.857Z"/></svg><svg fill="none" viewBox="0 0 102 102" id="features-1" xmlns="http://www.w3.org/2000/svg"><path d="M70.793 46.418c-5.708 7.568-12.934 13.1-22.202 15.762l-.628.157c-1.1.313-2.042.052-2.304-1.148-.262-1.096.524-1.67 1.571-1.931 4.503-1.097 8.483-3.184 12.2-5.898 6.388-4.645 10.944-10.804 14.242-17.902.158-.313.262-.574.42-.887.47-1.044 1.047-1.931 2.356-1.305 1.256.626.995 1.67.523 2.662-1.413 3.131-3.037 6.158-5.026 8.977-.42.574-.786 1.044-1.152 1.513ZM79.275 64.112c.42.365.733.887.576 1.46-.21.836-.838 1.201-1.623 1.41-3.77.835-7.54 1.462-11.362 1.722-6.44.47-12.829.21-19.165-.991-.314-.052-.628-.157-.942-.209-1.152-.209-1.885-.835-1.571-2.035.262-1.149 1.204-1.305 2.252-1.044 3.089.73 6.283 1.096 9.425 1.252a73.706 73.706 0 0 0 19.74-1.566c.89-.208 1.78-.626 2.67 0ZM82.836 49.602c-5.132 6.002-11.153 10.856-18.903 13.31-.733.208-1.466.417-2.251.521-.995.157-1.78-.157-1.99-1.2-.21-1.044.419-1.618 1.414-1.827 4.974-1.096 9.215-3.55 13.143-6.733a41.291 41.291 0 0 0 6.545-6.628c.419-.522.838-.992 1.309-1.462.628-.574 1.361-.522 1.937 0 .628.522.786 1.2.314 1.88-.419.73-.942 1.356-1.518 2.14ZM94.408 58.58c.942.625.942 1.982-.105 2.556-3.299 1.827-6.86 3.132-10.42 4.228-.89.261-1.675-.104-1.937-1.044-.262-.94.21-1.618 1.047-1.93 1.937-.732 3.875-1.41 5.812-2.193a80.2 80.2 0 0 0 3.718-1.67c.628-.261 1.256-.418 1.885.052ZM88.124 42.19c-.68.888-1.466 1.253-2.356.627-.785-.522-.942-1.357-.367-2.14.576-.835.786-1.983 2.095-2.088.68-.052 1.152.314 1.466.888.524 1.148-.576 1.826-.838 2.714ZM76.343 28.673c.576-.835 1.309-1.044 2.147-.574.89.522.995 1.931.262 2.87-.576.731-1.414.94-2.147.366-1.047-.783-.733-1.775-.262-2.662ZM101.633 56.857c-.733 1.044-2.303 1.461-2.984.835-.68-.627-.838-1.462-.21-2.192.734-.783 1.676-1.566 2.88-.783.838.522.838 1.305.314 2.14Z" fill="#01BDE0"/><path d="M52.78 78.882c.262.365.471.73.629 1.096-.105-.365-.315-.73-.629-1.096ZM50.79 92.817c-.157.105-.314.261-.418.366l.052-.053c.785-.47 1.361-1.096 1.518-1.93-.157.573-.575 1.147-1.151 1.617Z" fill="#525252"/><path d="M45.293 40.416c-2.409-2.557-5.08-4.801-7.54-7.307-3.927-3.966-8.116-7.829-6.703-13.622.105-3.966-.314-7.202-1.047-10.386a49.916 49.916 0 0 0-2.042-6.733c-.366-.991-.995-1.67-2.094-1.252-1.205.417-1.205 1.409-.786 2.453.157.365.262.73.42 1.096 1.78 5.375 3.036 10.856 2.355 16.544-.262 2.14.314 4.124 1.257 6.003 1.728 3.497 4.45 6.21 7.226 8.872 2.304 2.192 4.66 4.332 6.86 6.629 1.675 1.774 1.518 2.766-.367 4.332-1.414 1.2-2.985 2.035-4.713 2.661-1.361.522-1.728 1.305-1.361 2.662.314 1.2.628 2.349 1.1 3.497.157.522.418.992.732 1.618.367.626.262.73-.314.887-1.1.313-3.403.783-4.293 1.462-1.362 1.044-1.938 2.557-1.78 4.018a4.434 4.434 0 0 0 1.413 2.819c.157.156.314.26.471.365.943.679 1.99 1.096 3.09 1.566-.053.365-.315.73-.524.94a63.64 63.64 0 0 0-2.88 2.4c-.89.783-1.152 1.67-.785 2.923.89 2.87 1.152 5.793.576 8.716-.576 2.923-2.461 4.906-4.975 5.115-1.204.104-2.408.104-3.612-.157a2285.16 2285.16 0 0 0-18.327-3.81c-1.518-.313-2.985-.626-4.503-.887-.995-.157-1.78.104-2.042 1.148-.21 1.044.366 1.618 1.361 1.88.262.051.524.104.786.208 2.775.574 5.55 1.148 8.377 1.67.786.157 1.362.313.576 1.2-2.146 2.506-3.037 5.48-3.717 8.612-.21 1.096-.21 2.088.995 2.401 1.309.313 1.832-.574 2.042-1.722.419-1.984.995-3.915 1.937-5.69 1.466-2.661 3.456-3.548 6.44-2.922 2.304.47 4.608.94 6.965 1.253 5.34.73 9.372-2.036 10.629-7.255.733-3.132.576-6.315-.21-9.395-.209-.887-.104-1.409.629-1.983.942-.678 1.885-1.461 2.775-2.192.157-.104.314-.261.419-.365.576-.47.995-1.044 1.152-1.618 0-.157.052-.313.052-.47 0-1.148-.733-1.827-1.728-2.296-.89-.418-1.78-.731-2.67-1.149-.733-.365-1.676-.626-1.623-1.774 0-.313.104-.522.21-.731.313-.522.942-.73 1.518-.94.157-.052.261-.104.47-.156 1.1-.313 2.88-.574 3.666-.94 1.31-.574 1.885-1.617 1.519-2.661a5.871 5.871 0 0 0-.629-1.096c-.157-.261-.366-.47-.576-.783-.576-.73-.942-1.618-1.309-2.453-.366-.888-.104-1.357.733-1.775 1.257-.574 2.409-1.252 3.509-2.14 3.717-2.975 4.031-5.897.89-9.29Z" fill="#fff"/></svg><svg fill="none" viewBox="0 0 47 110" id="features-2" xmlns="http://www.w3.org/2000/svg"><path d="M30.78 18.54c-1.401 5.814 2.736 9.69 6.611 13.665 2.443 2.497 5.114 4.764 7.46 7.326 3.126 3.351 2.8 6.308-.75 9.231a17.22 17.22 0 0 1-3.452 2.136c-.88.394-1.108.887-.75 1.774.359.854.684 1.708 1.27 2.463 1.532 1.939 1.89 3.056.392 4.797-1.89 2.2-2.15 4.205-.847 6.701.619 1.183.032 2.333-.977 3.187-1.043.854-2.085 1.741-3.192 2.562-.717.526-.847 1.084-.62 1.971.75 3.121.913 6.275.196 9.429-1.205 5.223-5.211 8.015-10.52 7.26-2.313-.329-4.593-.789-6.873-1.249-2.931-.591-4.43.624-6.384 2.924-2.736 3.22-3.224 10.48-3.615 12.484-.228 1.149-.814 4.139-2.117 3.81-1.205-.295-1.14-3.351-.912-4.435.651-3.12 1.4-10.742 5.342-15.407.749-.887.195-1.051-.554-1.215-2.769-.559-5.537-1.117-8.273-1.709-.26-.065-.521-.098-.782-.197-.977-.263-1.563-.82-1.335-1.872.228-1.051 1.042-1.314 2.02-1.15 1.497.263 2.996.559 4.461.887 6.058 1.281 12.084 2.562 18.142 3.844 1.173.262 2.378.262 3.55.164 2.509-.23 4.365-2.234 4.951-5.158.587-2.99.294-5.913-.553-8.771-.391-1.248-.065-2.168.781-2.924 1.14-1.018 2.28-2.037 3.518-2.924 1.27-.92.358-1.84.098-2.759-.326-1.15-1.108-.559-1.694-.361-1.042.328-2.02.788-3.062 1.117-.977.328-1.921.295-2.28-.855-.358-1.084.229-1.74 1.238-2.102 1.433-.493 2.866-1.051 4.3-1.544.716-.263 1.367-.624 1.889-1.215 1.889-2.005 1.921-2.169.586-4.501-.814-1.38-1.173-2.924-1.596-4.468-.358-1.347 0-2.168 1.335-2.694 1.662-.657 3.258-1.478 4.658-2.66 1.857-1.61 2.052-2.596.358-4.37-2.182-2.3-4.495-4.435-6.775-6.636-2.735-2.66-5.406-5.387-7.165-8.87-.945-1.872-1.498-3.876-1.238-6.011.652-5.75-.553-11.203-2.312-16.59-.228-.329-.359-.69-.489-1.051-.39-1.052-.39-2.004.814-2.464 1.075-.394 1.694.328 2.052 1.281.847 2.201 1.499 4.435 2.052 6.735.75 3.219 1.173 6.471 1.043 10.413Z" fill="#fff"/><path d="M5.081 91.173c1.042-.328 2.052.493 1.857 1.643-.62 3.58-1.76 7.03-3.095 10.413-.325.855-1.075 1.183-1.921.822-.88-.362-1.075-1.117-.815-1.971.587-1.906 1.27-3.778 1.857-5.716.39-1.249.651-2.563.977-3.811.195-.624.456-1.183 1.14-1.38ZM11.954 106.744c-1.043.329-2.052-.459-1.89-1.609.587-3.614 1.662-7.063 2.932-10.48.326-.854 1.042-1.182 1.922-.854.879.361 1.107 1.084.846 1.971-.586 1.905-1.205 3.81-1.758 5.716-.359 1.249-.62 2.563-.912 3.844-.163.657-.424 1.215-1.14 1.412Z" fill="#01BDE0"/></svg><svg fill="none" viewBox="0 0 57 108" id="features-3" xmlns="http://www.w3.org/2000/svg"><path d="M41.586 89.719c.677-3.614-.903-6.175-4.44-7.229-6.7-1.995-13.587-1.995-20.286.075-2.935.904-4.516 3.088-4.215 5.836.075.828.188 1.694.301 2.485.452 3.765.903 7.304-.414 10.467 0 2.146.49 3.84 1.43 4.781.828.828 1.995 1.092 3.387.678 3.275-.904 6.549-1.356 9.785-1.356 3.275 0 6.586.452 9.86 1.393.377.113.753.151 1.13.151 1.73 0 3.086-1.242 3.462-3.2.226-1.167.301-2.146.038-2.975-1.205-3.915-.678-7.793-.038-11.106Zm-2.333 14.533c-.301.338-.753.527-1.393.527-.564 0-1.28-.151-2.37-.377-2.823-.64-5.684-.979-8.43-.979-3.162 0-6.323.414-9.41 1.28-.489.113-.865.189-1.241.189-.565 0-1.017-.189-1.355-.528-.527-.564-.565-1.43-.527-2.033v-.64c0-.64 0-1.355.263-2.033 1.167-2.861.678-5.798.038-8.81-.903-4.254.263-6.024 4.554-7.04l.263-.076c.602-.15 1.242-.3 1.882-.338 1.392-.113 2.747-.189 3.951-.264.414-.037.828-.037 1.205-.075h.075c.527.037 1.054.037 1.543.075 2.898.113 5.645.188 8.28 1.205 2.446.941 3.236 2.146 3.048 4.744-.038.753-.188 1.581-.376 2.522-.64 2.9-.866 5.309.113 7.68.188.453.225.904.263 1.319v.188c.188 1.732.226 2.823-.376 3.464ZM40.57 61.218c.828-4.254-.715-6.664-4.93-7.906-2.22-.64-4.63-.941-7.828-.941H26.043c-1.618 0-3.425.15-5.382.414-2.973.414-4.968 1.355-6.059 2.861-1.054 1.43-1.317 3.501-.866 6.325.49 2.824.64 5.233-.112 7.756-.377 1.242-.414 2.56-.15 3.915.413 1.92 1.617 3.012 3.273 3.012.377 0 .79-.075 1.205-.15a34.192 34.192 0 0 1 9.07-1.243c3.01 0 6.096.415 9.107 1.243.414.113.79.15 1.167.15 1.693 0 2.935-1.129 3.312-3.011.263-1.356.263-2.41-.038-3.351-.903-3.125-.527-6.213 0-9.074Zm-1.995 12.726c-.3.376-.753.564-1.392.564-.452 0-1.016-.075-1.882-.3-2.747-.64-5.495-.98-8.204-.98-2.86 0-5.72.377-8.543 1.13-.602.15-1.092.263-1.506.263-.451 0-.828-.15-1.091-.414-.49-.49-.527-1.28-.527-2.259v-.113c0-.188 0-.414.075-.677 1.13-3.765.678-7.568.113-10.768-.602-3.351.979-4.48 3.538-5.196 2.71-.753 5.42-.79 8.016-.828h.79c.49.038 1.017.075 1.506.113 1.92.113 3.726.226 5.532.715 2.747.753 4.29 1.958 3.613 5.497-.715 3.652-.678 7.078.075 10.429.301 1.28.377 2.184-.113 2.824ZM39.554 32.83c.602-3.576-.903-5.798-4.63-6.814-2.182-.603-4.478-.866-7.488-.866H26.23c-1.43 0-3.123.15-5.156.452-2.71.414-4.516 1.28-5.494 2.71-.979 1.393-1.167 3.351-.64 5.987.414 1.882.677 4.141-.113 6.513-.339.979-.376 2.184-.15 3.765.263 1.732 1.505 2.9 3.048 2.9.3 0 .602-.039.903-.114a33.8 33.8 0 0 1 8.58-1.13c2.861 0 5.721.377 8.544 1.168.263.075.564.113.828.113 1.467 0 2.71-1.092 3.048-2.598.188-.904.339-1.92.075-2.824-1.016-3.275-.64-6.363-.15-9.262Zm-1.957 11.71c-.49.64-1.28.64-1.543.64-.452 0-1.016-.076-1.807-.226-2.483-.49-4.93-.753-7.225-.753a30.95 30.95 0 0 0-7.715.978c-.415.113-.79.151-1.092.151-.564 0-1.016-.188-1.317-.527-.49-.565-.49-1.355-.414-1.92 0-.113.038-.264.038-.377 0-.339.037-.753.188-1.13 1.053-2.672.64-5.345.075-8.094-.677-3.238.226-4.63 3.462-5.497 2.108-.564 4.178-.602 6.21-.677h.565c2.333.037 4.967.075 7.451.79 2.785.791 3.726 2.297 3.124 5.045-.565 2.485-.979 5.497 0 8.697.338 1.28.49 2.222 0 2.9ZM38.914 7.643l.075-.377c.49-3.162-.753-5.12-3.951-6.212C32.59.188 30.108.075 27.134 0c-.489.038-.94.038-1.43.075-1.129.038-2.258.113-3.387.226-.866.075-1.769.301-2.785.603-3.575 1.13-4.855 3.275-4.14 6.89.49 2.522.866 5.007-.075 7.605-.339.94-.226 2.033-.075 2.974.263 1.732 1.467 2.824 3.048 2.824a3.1 3.1 0 0 0 .979-.15 29.742 29.742 0 0 1 7.865-1.055c2.597 0 5.27.376 7.904 1.054.3.075.602.113.94.113 1.581 0 2.823-1.13 3.011-2.861.113-.829.226-1.77 0-2.447-.94-2.787-.527-5.535-.075-8.208Zm-2.032 10.805c-.301.377-.753.603-1.393.603-.376 0-.865-.076-1.505-.226a30.685 30.685 0 0 0-13.963.037c-.527.113-.94.189-1.28.189-.601 0-1.053-.189-1.354-.565-.452-.602-.301-1.468-.113-2.221.753-2.711.753-5.61.038-9.3-.414-1.995.527-3.464 2.596-4.104 2.484-.753 5.081-.828 6.963-.866 2.634.038 5.005.113 7.376.904 2.409.79 3.161 1.995 2.672 4.367-.715 3.464-.715 6.175 0 8.735.264.866.452 1.807-.037 2.447Z" fill="#fff"/><path d="M55.586 76.24v5.987c0 1.204-.377 2.22-1.694 2.22-1.317.039-1.769-.94-1.806-2.145-.113-4.142-.226-8.245-.301-12.387-.038-1.205.376-2.184 1.731-2.221 1.317-.038 1.806.979 1.806 2.146.038 2.108 0 4.254 0 6.363.076.037.151.037.264.037ZM3.99 32.793v6.363c0 1.204-.49 2.146-1.845 2.108-1.242-.038-1.693-.941-1.656-2.07.038-4.255.075-8.51.15-12.764.038-1.167.565-1.995 1.807-1.92 1.205.075 1.656.903 1.656 2.07-.038 2.071 0 4.142 0 6.175-.038.038-.075.038-.113.038ZM54.457 34.525c0 1.694-.038 3.388 0 5.082.038 1.205-.226 2.222-1.618 2.26-1.355.037-1.77-.867-1.807-2.11a976.79 976.79 0 0 0-.3-10.503c-.039-1.28.375-2.335 1.806-2.372 1.317-.038 1.73 1.054 1.768 2.221.038 1.807 0 3.614 0 5.46.038-.038.113-.038.15-.038ZM.188 74.546v-5.27c0-1.206.414-2.184 1.769-2.11 1.204.038 1.656.904 1.656 2.072-.038 3.576-.038 7.115-.075 10.692 0 1.205-.452 2.221-1.77 2.221C.302 82.151 0 81.06 0 79.78v-5.27a.41.41 0 0 0 .188.037ZM54.87 53.35c0 .865.039 1.769 0 2.635-.037 1.016-.639 1.656-1.617 1.694-.904.038-1.619-.49-1.694-1.393a63.633 63.633 0 0 1-.188-5.986c0-.904.677-1.469 1.618-1.506.979-.038 1.58.527 1.731 1.393.15 1.016.113 2.108.15 3.162ZM.828 10.052c0-.94-.075-1.882 0-2.823.075-.98.677-1.657 1.693-1.657 1.017 0 1.694.678 1.694 1.657.038 1.92 0 3.878-.113 5.798-.038.941-.677 1.468-1.618 1.468-1.054 0-1.618-.64-1.731-1.619-.076-.941-.038-1.882-.038-2.824h.113ZM3.65 55.797c0 .979.038 1.995 0 2.974-.075.979-.752 1.43-1.655 1.43-.941 0-1.619-.564-1.694-1.43a63.52 63.52 0 0 1 .038-5.986c.037-.904.752-1.469 1.656-1.469.978 0 1.655.603 1.693 1.62.038.94 0 1.882 0 2.785.038.076 0 .076-.038.076ZM56.038 99.056c0 .866.037 1.732 0 2.635-.038 1.017-.603 1.657-1.619 1.732-1.016.038-1.73-.602-1.768-1.543-.113-1.92-.151-3.878-.113-5.798 0-.942.677-1.469 1.58-1.544 1.016-.038 1.656.527 1.769 1.544.075.979 0 1.995 0 3.012.038-.038.075-.038.15-.038Z" fill="#01BDE0"/></svg><svg fill="none" viewBox="0 0 81 107" id="features-4" xmlns="http://www.w3.org/2000/svg"><path d="M79.211 34.77c-1.249-2.351-3.68-3.643-6.278-3.345-2.728.298-4.535 2.12-5.324 5.299-.23.894-3.155 3.61-3.944 3.576-.197 0-.428-.132-.559-.265-2.564-2.318-5.292-4.437-8.513-6.623 4.799-1.026 7.396-3.675 7.987-8.113.132-1.026.428-1.821 1.15-2.616 1.447-1.556 1.644-3.477.23-4.735-1.544-1.358-1.544-2.947-1.741-4.703-.56-5.132-2.4-9.537-7.428-11.788C51.339-.1 47.69-.2 43.977.23c-1.019.133-1.873.53-1.742 1.755.132 1.292.986 1.093 2.07.96 1.874-.231 3.813-.297 5.687-.099 4.634.53 7.855 3.312 9.006 7.849.46 1.788.92 3.708.854 5.563-.033 1.324.263 2.351 1.578 2.947.953.43 1.315 1.424.559 2.12-.46.397-1.184.96-1.25 1.622-.164 1.987-1.676 1.06-2.727.695-.526-.198-1.545-.761-2.038-.993-.888-.397-1.644-.199-2.104.662-.46.894.198 1.292 1.02 1.755.755.43 1.577.729 2.398 1.06.592.232 1.743.795 1.874 1.39.131.829-.723 1.425-1.348 1.922-.723.596-1.61.894-2.53 1.125-1.611.398-3.747.1-5.39.067-1.381 0-2.038-.133-2.203 1.655 0 .1-.033.232-.033.331l3.846 2.02.066.034c.887.364 1.676 1.192 2.563 1.722.362.231.723.496 1.085.761 2.695 1.92 2.366 2.252.624 5.133-1.61 2.65-1.61 2.65-4.305 1.126-.132-.066-.263-.199-.428-.232-.953-.364-1.775-.199-2.202.795a104.37 104.37 0 0 0-1.807 4.437c-.33.861-.165 1.689.788 2.053 1.02.398 1.677-.1 2.104-1.026.131-.298.296-.596.361-.927.362-1.722 1.118-1.557 2.334-.729 2.63 1.788 5.325 3.477 8.053 5.133 2.399 1.49 5.061 1.39 7-.497a328.608 328.608 0 0 0 10.682-10.762c1.874-1.92 2.038-4.57.79-6.888Zm-2.728 5.663c-3.188 3.179-6.475 7.12-9.663 10.298-1.38 1.391-3.188 1.126-4.799.133-1.479-.927-3.385-2.252-4.897-3.146-.69-.43-1.052-1.557-.526-2.318a35.71 35.71 0 0 0 2.07-3.378c.494-.927 1.743-.927 2.334-.232.264.298.592.497.855.795 1.019 1.192 1.446.695 2.63-.265.46-.397 1.018-.762 1.511-1.093 2.071-1.39 3.616-2.185 3.977-5.364.165-1.557 2.893-2.683 4.306-2.45 1.48.231 3.451 2.35 3.451 3.84-.098.928-.624 2.55-1.249 3.18ZM54.758 91.264c.328.629.394.728.657 1.324 0 .066.723.331.69.398l.526.264c.23-.298 0 2.22.395 2.22.953 0 1.741-.696 2.925-.663 2.892.066 5.785.033 9.137.033-4.24 4.073-8.809 6.49-13.969 7.881-.789.199-1.052-.099-1.282-.795-.23-.794-.394-1.92-.723-2.053-.328-.132-1.38.232-1.38.232s-1.25.364-1.25.96c0 .597.593 1.822.79 2.782.328 1.788 2.07 2.517 3.91 2.053 5.851-1.457 11.077-4.106 15.482-8.278 1.117-1.06 1.742-2.252 1.15-3.842-.592-1.556-1.84-2.053-3.385-2.053-2.86.033-5.686-.1-8.546.033-1.578.066-2.334-.497-2.892-1.92-1.052-2.616-2.86-4.57-4.01-7.12-.427-.96-.559-1.225-1.545-.861-.822.331-.526.828-.066 1.556.395.63.46.762.395 1.16l1.347 3.046c.953.199 1.02 2.417 1.644 3.643ZM50.616 76.494s-6.212-13.08-6.277-13.775c-.066-.696 3.385-8.213 3.385-8.213.164-.397-.263-.993-.986-1.291-.723-.298-1.413-.199-1.61.198l-3.649 8.875c-.164.398-.263.861.526 2.053l6.08 13.312c.263.596 1.052.828 1.775.497.69-.298 1.02-1.06.756-1.656Z" fill="#fff"/><path d="M58.504 93.317c.33.695-.065 1.589-.854 1.986-.789.365-1.71.1-2.038-.596L50.32 83.283c-.328-.696.066-1.59.855-1.987.789-.364 1.709-.1 2.038.596l5.291 11.425Z" fill="#fff"/><path d="M2.07 46.857a1.641 1.641 0 0 1-2.004-1.16c-.23-.893.296-1.788 1.15-2.02l32.54-8.742a1.641 1.641 0 0 1 2.004 1.16c.23.894-.296 1.788-1.15 2.02L2.07 46.856ZM13.082 54.672c-.592.166-1.25-.43-1.513-1.325-.23-.894.066-1.722.658-1.887l22.021-5.928c.592-.165 1.25.43 1.512 1.325.23.894-.066 1.722-.657 1.887L13.08 54.672ZM22.35 61.03c-.394.1-.887-.53-1.15-1.424-.23-.894-.099-1.689.295-1.788L36.09 53.91c.394-.1.887.53 1.15 1.424.23.894.099 1.689-.296 1.788L22.35 61.03Z" fill="#01BDE0"/></svg><svg fill="none" viewBox="0 0 100 91" id="features-5" xmlns="http://www.w3.org/2000/svg"><path d="M5.765 14.258c3.27-1.567 6.29-1.504 9.186.345.716.438 1.526.971.903 1.974-.591.971-1.401.564-2.149.063-.03-.032-.093-.063-.124-.095-2.242-1.378-4.516-1.378-6.789-.125-2.18 1.19-3.363 3.134-3.425 5.61-.094 3.352-.063 6.674-.031 10.027.03 1.567.747 2.319 2.304 2.35 2.803.063 5.605 0 8.408.031.903 0 .996-.438.996-1.16-.03-2.412-.062-4.793 0-7.206.125-5.61 4.485-9.558 10.028-9.12.934.063 1.93.189 1.868 1.38-.062 1.159-1.027 1.034-1.9 1.002-4.577-.219-7.504 2.601-7.535 7.302-.031 2.883 0 5.734 0 8.617 0 2.288.622 2.914 2.833 2.914 2.554 0 5.076-.031 7.63.032.996.031 1.339-.282 1.308-1.316-.063-4.45-.031-8.869-.031-13.318.03-4.481 2.273-7.772 6.041-8.868 3.768-1.128 7.318.313 9.81 3.917.684.971 1.338 1.974 2.024 2.945.467.69.84 1.442 0 2.037-.841.596-1.433.063-1.931-.627-.748-1.128-1.495-2.256-2.305-3.353-1.743-2.444-4.422-3.415-7.1-2.538-2.46.784-4.142 3.102-4.173 5.985-.062 5.39-.03 10.749 0 16.138 0 1.88.81 2.633 2.71 2.664 2.647.031 5.294 0 7.94 0 .872 0 1.807.094 1.807 1.222-.032 1.128-.997 1.19-1.838 1.19-2.553 0-5.076-.03-7.63 0-2.272.032-4.079-.782-5.013-2.976-.28-.69-.747-.72-1.339-.72-2.71 0-5.387-.032-8.096.03-2.274.032-3.955-.814-4.765-3.008-.28-.752-.81-.69-1.37-.69H6.232C2.712 36.852 1 35.129 1 31.588c0-3.04.031-6.048 0-9.088-.031-2.068.53-3.948 1.775-5.546.592-.784.716-1.536.592-2.444-.312-2.163-.53-4.356-.156-6.55C4.27 1.974 8.536-1.065 14.391.345c7.878 1.849 15.694 3.917 23.542 5.86 3.052.752 6.103 1.598 9.249 2.13 4.173.721 8.127-.313 12.113-1.347C68.078 4.763 76.86 2.476 85.703.376c6.54-1.567 11.304 2.225 11.553 8.993.031.721.094 1.473 0 2.194-.374 2.695-.592 5.296 1.183 7.709.686.94.592 2.319.592 3.51.031 2.976.031 5.953 0 8.93-.031 3.353-1.806 5.108-5.138 5.14-2.585.03-5.2.03-7.785 0-.81 0-1.277.156-1.65 1.002-.78 1.786-2.212 2.695-4.174 2.695H70.32c-.84 0-1.681-.126-1.681-1.16 0-1.096.84-1.253 1.775-1.253 3.176 0 6.321.031 9.498 0 1.9 0 2.522-.627 2.553-2.538.031-3.134.031-6.267 0-9.401-.062-4.324-3.145-7.176-7.474-6.894-.155 0-.31.031-.467.031-.84.126-1.681.032-1.743-1.034-.063-1.003.747-1.253 1.588-1.347 1.993-.22 3.955 0 5.73 1.034 2.99 1.692 4.67 4.23 4.733 7.74a151.58 151.58 0 0 1 0 7.52c0 .878.28 1.223 1.152 1.191 2.71-.031 5.388.032 8.097-.031 1.775-.031 2.491-.72 2.491-2.475.031-3.228.031-6.487 0-9.715-.031-2.757-1.339-4.825-3.8-5.985-2.46-1.16-4.826-.971-7.006.784-.654.532-1.37 1.002-2.024.219-.685-.846-.156-1.536.56-2.1 2.679-2.1 5.637-2.663 8.751-1.316 1.464.627 1.775.157 1.775-1.19 0-1.818.218-3.636-.311-5.453-1.06-3.416-3.239-5.014-6.758-4.67-3.145.314-6.166 1.348-9.249 2.1-7.38 1.818-14.791 3.667-22.14 5.61-4.765 1.253-9.436.752-14.139-.44-9.248-2.38-18.497-4.73-27.746-6.956C8.941 1.473 5.64 4.136 5.422 9.87c-.062 1.411.125 2.821.343 4.388ZM5.827 65.022c-1.34 3.228-.903 6.017.716 8.618 2.211 3.572 5.574 5.86 9.187 7.74 6.197 3.228 12.83 5.014 19.68 6.08 7.038 1.096 14.139 1.44 21.239.877.934-.063 1.93-.063 1.962 1.159.03 1.16-.935 1.19-1.775 1.222-12.644.783-25.069-.313-37.058-4.794-4.765-1.787-9.218-4.105-12.799-7.834-3.643-3.76-5.48-8.085-3.643-13.38.249-.722.498-1.536.996-2.1 1.34-1.567 1.464-3.322 1.37-5.265-.093-1.723-.062-3.447 0-5.17.063-2.476 1.775-4.23 4.235-4.293 2.585-.063 5.201-.032 7.786-.032.81 0 1.526.22 1.557 1.16.03 1.034-.716 1.253-1.588 1.222-2.398 0-4.765-.032-7.163 0-1.713 0-2.429.658-2.429 2.319-.031 3.447-.062 6.894.031 10.34.063 2.79 1.37 4.889 3.893 6.111 2.429 1.16 4.796 1.003 7.069-.564.747-.533 1.027-1.16 1.027-2.1-.062-3.227-.03-6.486 0-9.714.032-3.04 1.713-4.731 4.734-4.794 2.335-.031 4.671 0 7.007 0 .872 0 1.806.125 1.837 1.222.031 1.128-.903 1.222-1.775 1.222h-6.851c-1.93 0-2.554.596-2.554 2.507 0 3.29-.03 6.58 0 9.87.031 4.2 3.083 7.145 7.225 7.114.965 0 2.398-.501 2.367 1.128-.031 1.473-1.433 1.254-2.43 1.254-3.674 0-6.477-1.598-8.376-4.763-.343-.596-.498-1.222-1.433-.596-5.044 3.29-11.74.47-13.577-4.825-.125-.188-.25-.408-.467-.94Z" fill="#fff"/><path d="M62.846 16.922c6.446 0 10.525 6.173 8.034 11.907-2.273 5.202-4.796 10.278-7.287 15.386-1.152 2.382-3.644 3.26-6.073 2.162-3.923-1.786-7.785-3.666-11.615-5.577-2.024-1.003-3.176-3.385-2.336-5.421 1.9-4.544 3.706-9.213 7.692-12.504 2.678-2.193 5.73-3.76 8.75-5.358.935-.502 2.056-.627 2.834-.595Zm6.383 8.742c0-4.794-4.67-7.771-8.781-5.703-2.18 1.097-4.267 2.382-6.29 3.698-2.305 1.504-4.08 3.54-5.326 5.985a185.554 185.554 0 0 0-2.71 5.61c-.778 1.66-.373 2.788 1.278 3.603a680.305 680.305 0 0 0 10.774 5.17c1.65.784 2.74.345 3.55-1.347 2.305-4.826 4.61-9.683 6.914-14.509.404-.846.622-1.723.591-2.507ZM42.168 78.936c-6.26-.032-10.526-6.236-8.564-11.752 1.402-3.916 3.488-7.551 5.512-11.186 1.121-1.975 3.488-2.633 5.574-1.63 2.523 1.19 5.045 2.444 7.505 3.792 2.056 1.128 2.772 3.196 1.744 5.358-1.868 3.886-3.768 7.772-5.823 11.563-1.401 2.57-3.737 3.823-5.948 3.855Zm-.093-2.382c1.494-.063 3.083-1.003 4.048-2.852 1.9-3.635 3.675-7.332 5.543-10.998.56-1.097.311-1.943-.716-2.507a222.712 222.712 0 0 0-7.225-3.635c-1.121-.533-2.21-.251-2.803.908-1.743 3.385-3.58 6.706-5.013 10.216-1.65 3.948 1.588 8.868 6.166 8.868Z" fill="#fff"/><path d="M51.417 32.527c1.028-2.79 2.71-4.607 4.764-6.017 1.776-1.222 3.737-2.225 5.606-3.321 1.12-.658 2.18-.564 3.145.344.934.878 1.059 1.975.56 3.134-.03.063-.062.094-.062.157-.778 2.475-2.086 3.948-5.013 3.948-2.928 0-5.824.846-9 1.755ZM39.023 69.974c.093-1.63 1.028-2.915 1.713-4.294.218-.438.56-.376.903-.094.187.157.436.314.623.47.84.752 2.553 1.066 2.584 2.006.063 1.504-1.058 2.883-1.868 4.199-.779 1.254-2.211 1.097-3.208-.25-.467-.627-.84-1.254-.747-2.037Z" fill="#01BDE0"/></svg><svg fill="none" viewBox="0 0 99 66" id="features-6" xmlns="http://www.w3.org/2000/svg"><path d="M42.28 42.92c1.378 0 2.755.031 4.133 0 .98-.03 1.806.185 1.837 1.327.03 1.11-.704 1.45-1.715 1.481-2.847.062-5.694.154-8.541.247-1.041.03-1.898-.309-1.929-1.481-.03-1.08.857-1.42 1.806-1.45 1.47-.031 2.94 0 4.44 0-.031-.031-.031-.062-.031-.124ZM56.363 42.92c1.378 0 2.755.031 4.133 0 .98-.03 1.806.185 1.837 1.327.03 1.11-.704 1.45-1.715 1.481a787.98 787.98 0 0 0-8.541.247c-1.041.03-1.898-.309-1.929-1.481-.03-1.08.857-1.42 1.806-1.45 1.47-.031 2.94 0 4.44 0-.031-.031-.031-.062-.031-.124ZM70.11 40.482c1.316-.37 2.663-.74 3.98-1.11.918-.278 1.775-.309 2.112.802.337 1.08-.306 1.604-1.255 1.913-2.725.833-5.45 1.697-8.175 2.56-1.01.31-1.928.217-2.235-.894-.306-1.049.429-1.604 1.347-1.882 1.409-.432 2.848-.802 4.256-1.203 0-.093-.03-.155-.03-.186ZM82.784 37.243c1.286-.463 2.602-.926 3.858-1.42.888-.34 1.745-.432 2.173.617.398 1.05-.183 1.636-1.102 1.975a857.184 857.184 0 0 0-7.96 3.178c-.98.401-1.898.34-2.296-.71-.398-1.018.337-1.635 1.194-1.974a165.642 165.642 0 0 1 4.164-1.512c0-.062-.03-.093-.03-.154ZM27.646 40.482c-1.317-.37-2.664-.74-3.98-1.11-.919-.278-1.776-.309-2.113.802-.337 1.08.306 1.604 1.255 1.913 2.725.833 5.45 1.697 8.175 2.56 1.01.31 1.929.217 2.235-.894.306-1.049-.429-1.604-1.347-1.882-1.409-.432-2.848-.802-4.256-1.203 0-.093.03-.155.03-.186ZM14.971 37.243c-1.286-.463-2.602-.926-3.857-1.42-.888-.34-1.746-.432-2.174.617-.398 1.05.183 1.636 1.102 1.975a854.964 854.964 0 0 1 7.96 3.178c.98.401 1.898.34 2.296-.71.398-1.018-.337-1.635-1.194-1.974a165.642 165.642 0 0 0-4.164-1.512c0-.062.031-.093.031-.154Z" fill="#01BDE0"/><path d="M97.388 19.223c-1.776-2.376-1.409-4.937-1.072-7.56.092-.617.061-1.234.03-1.851C96.072 3.61 92.245-1.512 84.53.432c-9.031 2.252-18.093 4.505-27.125 6.819-4.225 1.08-8.45 1.882-12.828.802-3.766-.925-7.531-1.82-11.266-2.777C26.635 3.61 19.992 1.851 13.287.31 7.532-1.018 3.184 2.099 2.235 7.96c-.367 2.283-.122 4.505.153 6.757.123.833 0 1.45-.52 2.13C.582 18.482-.03 20.425 0 22.554c.03 3.024 0 6.079 0 9.103 0 3.054 1.225 4.69 3.827 5.122C.429 42.303.98 47.548 5.42 52.485c3.368 3.734 7.654 6.11 12.216 7.992C27.707 64.612 38.3 65.846 49.077 66c11.052-.154 21.89-1.481 32.146-5.863 4.96-2.129 9.582-4.844 12.797-9.441 2.633-3.765 3.49-7.992 1.133-12.034a10.004 10.004 0 0 1-.857-1.851c2.357-.401 3.704-2.099 3.735-4.721.03-3.24 0-6.48 0-9.72-.03-1.11 0-2.314-.643-3.147ZM92.826 47.98c-1.47 2.747-3.735 4.721-6.276 6.418-5.725 3.795-12.093 5.894-18.706 7.251-14.42 2.963-28.779 2.623-43.015-1.234-5.48-1.48-10.746-3.61-15.246-7.25-2.756-2.222-5.021-4.845-5.48-8.579-.184-1.542 0-3.024.643-4.474.49.34.52.833.704 1.234 2.265 5.277 8.358 7.344 13.287 4.475.857-.494 1.102-.34 1.53.462 2.787 4.875 8.42 6.326 13.165 3.333.888-.556 1.133-.309 1.623.4 3.123 4.506 8.725 5.524 13.164 2.346.766-.525 1.133-.432 1.807.062 4.316 3.085 10.042 2.067 13.072-2.346.521-.77.827-1.018 1.746-.431 4.592 2.93 10.317 1.45 13.072-3.302.337-.586.429-1.172 1.409-.617 5.48 2.993 11.082.987 13.624-4.783.091-.216.214-.462.367-.802 1.072 2.777.827 5.369-.49 7.837Zm-73.752-7.312h.03v.648c.03 1.018-.367 1.635-1.133 2.16-2.265 1.573-4.653 1.697-7.102.462-2.572-1.296-3.766-3.517-3.797-6.387v-.648c1.99 0 3.98 0 5.97-.03.704 0 1.102.184 1.378.894.888 2.067 2.48 2.931 4.653 2.9Zm11.542-13.824V23.05c.03-2.808 1.714-5.153 4.224-5.955 2.572-.833 5.205.062 6.889 2.345 2.357 3.24 4.654 6.51 5.633 10.43.092.37.184.709.245 1.08.49 2.807.306 5.646.153 8.484v5.338c0 1.204 0 2.407.03 3.61.031 1.019-.367 1.605-1.101 2.16-3.98 2.963-10.134.432-10.716-4.566a28.337 28.337 0 0 1-.153-1.605H45.158c.949 0 1.806-.463 2.633-.833v-4.104c0 .247-.03.494-.03.71-.062 1.173-1.042 1.759-2.175 1.759-3.275.03-6.551.03-9.827.03-.765 0-1.53 0-2.327-.03h-.52c-1.47-.031-2.266-.957-2.266-2.53-.03-2.808 0-5.647 0-8.455v-1.635c0-.833-.03-1.635-.03-2.438Zm36.922 0c0 .803-.03 1.605-.03 2.407v1.882h-.031v8.455c0 1.542-.888 2.283-2.297 2.314h-.49c-.765 0-1.56.03-2.326.03-3.245.032-6.49 0-9.736-.03-1.347 0-2.174-.74-2.266-2.19-.183-2.439-.244-4.845 0-7.19.092-.895.245-1.79.43-2.685.58-2.622 1.683-5.153 3.581-7.467.827-1.018 1.47-2.221 2.296-3.27 1.592-2.006 4.072-2.84 6.43-2.099 2.51.803 4.194 2.5 4.347 5.184.092 1.574.092 3.117.092 4.66Zm3.49 13.793h5.664c-.03.771-.092 1.542-.153 2.345-.276 2.623-1.93 4.381-4.348 5.276-2.418.895-4.715.586-6.735-1.11-.551-.464-.766-.988-.766-1.729v-1.08h.307c2.05-.03 3.674-.894 4.53-2.838.307-.803.797-.864 1.5-.864Zm-20.85 2.746v-2.438c0-1.882.031-3.764 0-5.646v8.084c.827.37 1.715 1.018 2.695.987 3.153-.03 6.307 0 9.46 0v.37c-.061 2.9-1.378 5.153-4.041 6.388-2.45 1.11-4.837.956-7.072-.74-.735-.556-1.102-1.204-1.102-2.192.03-1.203.03-2.406.03-3.61.03-.4.03-.802.03-1.203Zm-21.522-2.006c.888 2.16 2.633 2.962 4.837 2.962 0 .278 0 .556.031.834.03.925-.214 1.573-.918 2.098-2.205 1.697-4.623 1.882-7.073.771-2.51-1.172-3.949-3.24-4.01-6.078 0-.463-.03-.895-.03-1.358h5.694c.612.03 1.163 0 1.47.771Zm54.771-3.363c.398-.957.919-1.142 1.837-1.11 1.929.03 3.858.06 5.786.03 0 .37-.03.772-.03 1.142-.153 4.258-3.95 7.374-8.083 6.572-2.54-.494-3.95-1.327-3.888-3.98h.245c1.929-.031 3.398-.895 4.133-2.654Zm12.185-5.647c-.03 1.235-.704 2.037-1.96 2.099h-2.54c-2.082 0-4.133 0-6.215.03-.827 0-1.041-.308-1.01-1.08.03-2.622.06-5.245-.031-7.868 0-.123 0-.246-.03-.339a8.077 8.077 0 0 0-.552-2.438c-1.53-3.918-5.756-6.51-10.042-5.708-.214.031-.398.062-.582.154-.612.216-.918.648-.796 1.296.092.68.521.988 1.195.926 1.071-.062 2.143-.185 3.214.03 1.99.464 3.582 1.698 4.47 3.395.367.71.643 1.481.735 2.314.03.278.061.555.061.833.061 3.24.03 6.48 0 9.72 0 1.666-.735 2.437-2.327 2.499h-2.418c-1.807 0-3.644-.03-5.45.03-1.04.032-1.378-.246-1.347-1.357.03-2.56.061-5.122.061-7.683v-2.406c0-1.204-.03-2.407-.03-3.642-.062-5.307-4.042-9.133-9.124-8.793-2.786.185-4.929 1.542-6.49 3.826-1.837 2.746-3.888 5.338-5.297 8.794-1.439-3.641-3.49-6.51-5.602-9.319-2.052-2.746-4.93-3.826-8.267-3.178-3.52.679-5.755 2.931-6.674 6.418-.214.833-.214 1.728-.214 2.592v5.677c0 2.592 0 5.184.03 7.745 0 1.018-.305 1.296-1.285 1.265-1.837-.03-3.705-.03-5.542-.03h-2.387c-1.776 0-2.511-.741-2.542-2.5a498.34 498.34 0 0 1 0-9.565c0-.34.03-.648.092-.957a7.243 7.243 0 0 1 .735-2.345c1.163-2.19 3.46-3.548 6.276-3.517.95 0 2.327.524 2.357-1.08.031-1.481-1.377-1.296-2.326-1.327-4.103-.154-7.532 2.252-8.879 5.832-.275.771-.49 1.573-.582 2.406-.03.278-.06.587-.06.864-.031 2.407-.062 4.845 0 7.251.03.957-.276 1.235-1.225 1.204-1.96-.031-3.888-.031-5.848-.031H4.746c-1.654-.093-2.266-.833-2.297-2.623-.03-3.178-.091-6.387 0-9.565.153-5.462 5.695-8.454 10.348-5.616.735.463 1.531.926 2.113-.03.582-.926-.123-1.513-.857-1.975-2.572-1.697-5.327-1.944-8.175-.833-.918.339-1.255.277-1.255-.803 0-1.45-.184-2.87-.03-4.32.52-4.69 3.673-7.158 8.174-6.078 7.194 1.697 14.328 3.58 21.522 5.369 2.97.74 5.97 1.388 8.91 2.19 5.112 1.358 10.072.649 15.093-.647 9.062-2.376 18.155-4.66 27.278-6.85 4.654-1.111 7.746 1.265 8.297 6.047.153 1.45.03 2.87-.03 4.32-.031 1.08-.215 1.45-1.409.926-3.153-1.389-6.184-1.018-8.94 1.08-.673.524-1.561 1.141-.765 2.129.765.956 1.5.308 2.235-.247 2.112-1.604 4.409-1.79 6.766-.71 2.327 1.08 3.766 2.932 3.858 5.493.122 3.61.06 7.158.03 10.706Z" fill="#fff"/></svg><svg fill="none" viewBox="0 0 21 26" id="location" xmlns="http://www.w3.org/2000/svg"><path d="M19.333 9.8c0-4.86-4.104-8.8-9.166-8.8C5.104 1 1 4.94 1 9.8 1 16.2 10.167 25 10.167 25s9.166-8.8 9.166-15.2Z" stroke="#01BDE0" stroke-width="2" stroke-miterlimit="10" stroke-linejoin="round"/><path d="M10.167 13c1.84 0 3.333-1.433 3.333-3.2 0-1.767-1.492-3.2-3.333-3.2-1.841 0-3.334 1.433-3.334 3.2 0 1.767 1.493 3.2 3.334 3.2Z" stroke="#01BDE0" stroke-width="2" stroke-miterlimit="10" stroke-linejoin="round"/></svg><svg fill="none" viewBox="0 0 71 71" id="logo" xmlns="http://www.w3.org/2000/svg"><path d="M51.085 35.482c1.942-5.014 1.669-13.351-2.171-15.337-4.74-2.452-9.829 2.761-13.41 2.761-2.186 0-4.933-1.942-7.812-2.894a.057.057 0 0 1-.03-.015C17.08 15.448 1.418 23.6.015 34.906.333 15.574 16.098.008 35.505.008c1.033 0 2.052.044 3.063.132C53.892 3.678 57.99 22.603 51.085 35.482Z" fill="url(#na)"/><path d="M50.494 67.684A35.36 35.36 0 0 1 35.496 71C15.891 71 0 55.102 0 35.496c0-.2 0-.399.007-.598C1.41 23.593 17.08 15.44 27.654 19.997c-1.838-.606-3.729-.805-5.568.14-4.245 2.193-4.135 12.147-1.484 16.8a6.61 6.61 0 0 1 .842 3.47c-.14 4.165.886 9.481 2.858 13.336 0 .007.007.015.015.03 3.485 7.753 15.307 17.426 26.177 13.911Z" fill="url(#nb)"/><path d="M71 35.504c0 14.237-8.381 26.524-20.491 32.18-.008 0-.015 0-.015.008-10.87 3.508-22.7-6.159-26.177-13.905.413.805.87 1.551 1.358 2.2 1.02 1.345 3.198.584 3.227-1.063.11-6.158 1.337-11.054 6.594-11.711 5.265.65 6.491 5.546 6.602 11.712.03 1.646 2.208 2.407 3.227 1.063 2.85-3.78 4.4-10.515 4.231-15.566a6.471 6.471 0 0 1 .842-3.47c.25-.437.472-.924.68-1.448 0-.008.007-.015.007-.022C57.989 22.603 53.89 3.677 38.568.14 56.741 1.691 71 16.932 71 35.504Z" fill="url(#nc)"/><path d="M27.69 20.011a.054.054 0 0 1-.029-.014l.03.014Z" fill="url(#nd)"/><path d="M35.504 43.22c-5.265.65-6.484 5.546-6.594 11.712-.03 1.646-2.208 2.407-3.227 1.056-2.85-3.781-4.401-10.516-4.232-15.566a6.534 6.534 0 0 0-.834-3.471c-2.644-4.652-2.762-14.614 1.484-16.8 4.74-2.443 9.829 2.762 13.41 2.762 3.581 0 8.67-5.205 13.41-2.761 4.246 2.193 4.135 12.154 1.484 16.799a6.55 6.55 0 0 0-.834 3.47c.17 5.051-1.381 11.786-4.231 15.567-1.02 1.351-3.198.583-3.227-1.056-.126-6.166-1.344-11.062-6.61-11.712Z" fill="#fff"/><path opacity=".2" d="M50.494 67.684A35.36 35.36 0 0 1 35.496 71c-13.27 0-24.848-7.288-30.933-18.077 5.62 8.389 20.544 12.435 29.796 11.86 4.807 3.056 10.597 4.696 16.135 2.901Z" fill="#fff"/><path d="M50.494 67.684c-.377.192-.768.37-1.174.517-.872.333-1.795.569-2.733.71-1.366.199-2.776.199-4.157.021-2.769-.354-5.435-1.366-7.812-2.769a25.37 25.37 0 0 1-6.321-5.294 22.501 22.501 0 0 1-2.386-3.338c-.679-1.189-1.255-2.437-1.602-3.751 3.493 7.746 15.315 17.42 26.185 13.904Z" fill="url(#ne)"/><path opacity=".2" d="M26.377 69.819C11.195 65.787.007 51.956.007 35.504c0-.2 0-.399.008-.598.797-6.454 6.247-11.882 12.745-14.503-4.504 17.072-.221 42.172 13.617 49.416Z" fill="#fff"/><path opacity=".2" d="M27.654 20.004c-1.838-.606-3.729-.805-5.567.14-1.175.606-2.009 1.802-2.555 3.309-7.407-.665-17.265 4.63-19.525 11.445C1.417 23.6 17.08 15.448 27.654 20.004Z" fill="#000"/><path opacity=".2" d="M38.569.14C27.572.273 16.172 7.156 12.76 20.41 6.262 23.024.813 28.452.015 34.906.333 15.574 16.098.008 35.505.008c1.033 0 2.052.044 3.063.132Z" fill="#fff"/><path d="M27.654 20.004C17.08 15.448 1.418 23.6.014 34.906c-.014-.436 0-.872.045-1.3.096-1.07.355-2.134.731-3.153.525-1.44 1.293-2.799 2.216-4.04 1.853-2.473 4.32-4.467 7.044-5.9 2.725-1.432 5.753-2.326 8.824-2.495 1.536-.082 3.087.014 4.579.332 1.491.325 2.939.856 4.201 1.654Z" fill="url(#nf)"/><path opacity=".2" d="M71 35.504c0 14.237-8.381 26.524-20.491 32.18-.008 0-.015 0-.015.008-5.546 1.787-11.328.155-16.135-2.902C58.742 59.9 68.563 33.71 64.716 15.337 68.682 21.053 71 28.01 71 35.504Z" fill="#fff"/><path opacity=".2" d="M50.494 67.684c-10.87 3.508-22.7-6.158-26.177-13.904.413.805.87 1.55 1.358 2.2 1.02 1.344 3.198.584 3.227-1.063.03-1.728.148-3.36.421-4.822 2.023 9.651 12.51 18.269 21.17 17.59Z" fill="#000"/><path opacity=".2" d="M53.72 16.467C43.066 7.672 27.544 4.408 10.664 10.146 17.065 3.869 25.83 0 35.503 0c1.034 0 2.053.044 3.065.133 8.463 1.957 13.499 8.603 15.153 16.334Z" fill="#fff"/><path opacity=".2" d="M68.223 49.298c.252-13.573-5.324-25.247-14.502-32.824C52.067 8.743 47.03 2.097 38.568.148 56.741 1.698 71 16.94 71 35.51c0 4.881-.982 9.548-2.777 13.787Z" fill="#fff"/><path d="M54.99 25.299c-.53 3.655-1.823 7.214-3.906 10.183C57.99 22.603 53.89 3.677 38.569.14c1.802.192 3.589.687 5.273 1.455a17.971 17.971 0 0 1 4.63 3.101c2.769 2.555 4.696 5.952 5.752 9.534 1.063 3.596 1.3 7.406.768 11.069Z" fill="url(#ng)"/><path opacity=".2" d="M51.084 35.482c1.677-4.335 1.706-11.158-.804-14.208C51.084 13.831 47.48 4.18 38.568.133c15.323 3.544 19.42 22.47 12.517 35.349Z" fill="#000"/><path opacity=".1" d="M45.303 24.486c-3.412.466-8.662-.768-11.675-1.942.052.015.103.037.155.052l.148.044c.037.015.074.022.11.037.06.015.126.037.185.052.044.007.089.022.133.03.037.007.081.022.118.029l.118.022c.081.015.155.03.237.044.125.023.243.037.361.045.03 0 .06.007.082.007h.302c.99-.015 2.09-.42 3.264-.945h.008c.613 1.211 2.887 2.141 6.454 2.525ZM39.846 45.546c-.99-1.262-2.386-2.09-4.342-2.326a7.276 7.276 0 0 0-.835.148c-1.573-1.322-3.928-1.81-5.863-2.164 2.43 0 8.36.421 11.04 4.342Z" fill="#231F20"/><defs><linearGradient id="na" x1="-.221" y1="17.206" x2="50.978" y2="17.908" gradientUnits="userSpaceOnUse"><stop stop-color="#0FF"/><stop offset="1" stop-color="#0071BC"/></linearGradient><linearGradient id="nb" x1="35.78" y1="76.04" x2="11.177" y2="26.599" gradientUnits="userSpaceOnUse"><stop stop-color="#0FF"/><stop offset="1" stop-color="#0071BC"/></linearGradient><linearGradient id="nc" x1="62.62" y1="13.679" x2="27.824" y2="58.902" gradientUnits="userSpaceOnUse"><stop stop-color="#0FF"/><stop offset="1" stop-color="#0071BC"/></linearGradient><linearGradient id="nd" x1="27.658" y1="20.008" x2="27.687" y2="20.008" gradientUnits="userSpaceOnUse"><stop stop-color="#0FF"/><stop offset="1" stop-color="#0071BC"/></linearGradient><linearGradient id="ne" x1="22.645" y1="56.366" x2="49.24" y2="70.484" gradientUnits="userSpaceOnUse"><stop stop-color="#231F20"/><stop offset=".51" stop-color="#fff"/><stop offset="1" stop-color="#231F20"/></linearGradient><linearGradient id="nf" x1="-2.127" y1="31.358" x2="25.991" y2="17.006" gradientUnits="userSpaceOnUse"><stop stop-color="#231F20"/><stop offset=".51" stop-color="#fff"/><stop offset="1" stop-color="#231F20"/></linearGradient><linearGradient id="ng" x1="43.165" y1="-1.75" x2="55.896" y2="33.866" gradientUnits="userSpaceOnUse"><stop stop-color="#231F20"/><stop offset=".51" stop-color="#fff"/><stop offset="1" stop-color="#231F20"/></linearGradient></defs></svg><svg fill="none" viewBox="0 0 26 27" id="phone" xmlns="http://www.w3.org/2000/svg"><path d="M15.609 18.626s2.024-1.16 2.554-1.438c.529-.28 1.076-.35 1.409-.147.503.308 4.731 3.12 5.087 3.37.356.25.528.962.038 1.66-.487.698-2.736 3.458-3.69 3.428-.954-.03-4.922-.118-12.406-7.603-7.482-7.483-7.57-11.453-7.6-12.407C.97 4.535 3.73 2.285 4.427 1.797c.699-.487 1.412-.304 1.66.04.282.39 3.062 4.604 3.368 5.087.21.33.133.88-.147 1.41-.278.53-1.437 2.554-1.437 2.554s.817 1.394 3.58 4.156c2.764 2.763 4.157 3.582 4.157 3.582Z" stroke="#01BDE0" stroke-width="2" stroke-miterlimit="10"/></svg><svg fill="none" viewBox="0 0 30 32" id="quotes" xmlns="http://www.w3.org/2000/svg"><path d="M3.516 0h10.39L8.672 32H0L3.516 0Zm16.093 0H30l-5.234 32h-8.672l3.515-32Z" fill="#01BDE0"/></svg><svg fill="none" viewBox="0 0 44 49" id="triangle" xmlns="http://www.w3.org/2000/svg"><path d="M41.776 28.293 6.78 48.39C3.811 50.095 0 48.03 0 44.597V4.4C0 .97 3.806-1.098 6.781.612L41.776 20.71a4.389 4.389 0 0 1 1.628 1.6 4.331 4.331 0 0 1 0 4.383 4.389 4.389 0 0 1-1.628 1.6Z" fill="#fff"/></svg><svg viewBox="0 0 17 14" id="twitter" xmlns="http://www.w3.org/2000/svg"><path d="M16.265 2.348a6.02 6.02 0 0 1-.708.452c.029.227.029.481.029.736 0 3.281-1.415 6.251-3.65 8.316a10.531 10.531 0 0 1-6.307 2.065c-2.065 0-3.988-.594-5.629-1.612.34.056.679.084 1.047.084 1.64 0 3.14-.565 4.327-1.499-1.527-.028-2.828-1.046-3.28-2.46.197.028.423.056.65.056.31 0 .594-.028.877-.113a3.379 3.379 0 0 1-1.67-.934A3.46 3.46 0 0 1 .906 4.95v-.056c.424.226.877.367 1.386.424a3.535 3.535 0 0 1-1.16-1.556 3.726 3.726 0 0 1-.226-1.245c0-.17 0-.367.028-.537A3.76 3.76 0 0 1 1.414.679c.255.283.538.566.849.848.141.142.311.255.452.396A11.55 11.55 0 0 0 5.63 3.621c.141.056.255.113.396.141.48.17.962.311 1.47.396.114.028.227.057.34.057.057 0 .085.028.142.028.226.028.424.056.65.085a3.85 3.85 0 0 1-.113-.849c0-1.188.594-2.234 1.5-2.857A.456.456 0 0 1 10.21.51s.029 0 .029.028V.51C10.777.198 11.37 0 12.05 0c1.018 0 1.923.424 2.574 1.131.226-.056.48-.113.707-.17.255-.084.481-.14.707-.254.283-.113.538-.254.792-.396-.141.424-.367.82-.65 1.16-.198.226-.425.424-.65.622-.057.028-.114.085-.17.113h-.057v.029l.028-.029c.057 0 .113-.028.198-.028.255-.028.481-.085.736-.141.254-.057.509-.142.735-.227-.255.17-.51.34-.735.538Z"/></svg><svg viewBox="0 0 21 16" id="youtube" xmlns="http://www.w3.org/2000/svg"><path d="M10.87 1.312c2.677 0 4.868.046 6.894.136H17.822c.947 0 1.722.902 1.722 2.014v.045l.004.045c.094 1.394.14 2.842.14 4.302a61.426 61.426 0 0 1-.14 4.303l-.004.045v.045c0 .566-.193 1.09-.55 1.48-.32.353-.738.55-1.173.55h-.065c-2.17.103-4.463.156-6.825.156h-.435.004-.447c-2.37 0-4.663-.053-6.817-.152h-.065c-.435 0-.85-.197-1.17-.55a2.193 2.193 0 0 1-.549-1.48v-.045l-.004-.045a56.92 56.92 0 0 1-.135-4.294V7.858a61.468 61.468 0 0 1 .135-4.29l.004-.045v-.045c0-1.116.771-2.022 1.719-2.022H3.229c2.03-.094 4.22-.135 6.898-.135h.742m0-1.321h-.739C7.769 0 5.448.033 3.176.135 1.5.135.144 1.625.144 3.47A60.507 60.507 0 0 0 0 7.863a60.316 60.316 0 0 0 .14 4.388c0 1.846 1.357 3.347 3.03 3.347 2.248.106 4.541.156 6.883.156h.886c2.342 0 4.634-.05 6.886-.156 1.678 0 3.035-1.501 3.035-3.347.099-1.464.144-2.928.14-4.393a62.943 62.943 0 0 0-.14-4.392c0-1.846-1.357-3.327-3.035-3.327C15.553.033 13.235 0 10.87 0Z"/><path d="M8.49 11.886V3.83l5.947 4.027-5.947 4.028Z"/></svg></svg>