<svg width="99" height="66" viewBox="0 0 99 66" fill="none" xmlns="http://www.w3.org/2000/svg">
<path d="M42.2799 42.9201C43.6576 42.9201 45.0353 42.951 46.413 42.9201C47.3927 42.8892 48.2193 43.1052 48.2499 44.2469C48.2805 45.3577 47.5458 45.6971 46.5355 45.728C43.6882 45.7897 40.841 45.8822 37.9937 45.9748C36.9528 46.0057 36.0956 45.6662 36.065 44.4937C36.0344 43.4138 36.9222 43.0744 37.8713 43.0435C39.3408 43.0127 40.8104 43.0435 42.3105 43.0435C42.2799 43.0127 42.2799 42.9818 42.2799 42.9201Z" fill="#01BDE0"/>
<path d="M56.3629 42.9201C57.7406 42.9201 59.1183 42.951 60.496 42.9201C61.4757 42.8892 62.3023 43.1052 62.3329 44.2469C62.3635 45.3577 61.6288 45.6971 60.6185 45.728C57.7712 45.7897 54.924 45.8822 52.0768 45.9748C51.0358 46.0057 50.1786 45.6662 50.148 44.4937C50.1174 43.4138 51.0052 43.0744 51.9543 43.0435C53.4238 43.0127 54.8934 43.0435 56.3935 43.0435C56.3629 43.0127 56.3629 42.9818 56.3629 42.9201Z" fill="#01BDE0"/>
<path d="M70.1093 40.4824C71.4258 40.1122 72.7729 39.7419 74.0894 39.3716C75.0078 39.0939 75.865 39.0631 76.2018 40.1739C76.5386 41.2538 75.8957 41.7784 74.9466 42.0869C72.2218 42.92 69.497 43.784 66.7723 44.6479C65.762 44.9565 64.8435 44.8639 64.5373 43.7531C64.2312 42.704 64.966 42.1486 65.8844 41.8709C67.2927 41.439 68.7317 41.0687 70.14 40.6676C70.14 40.575 70.1093 40.5133 70.1093 40.4824Z" fill="#01BDE0"/>
<path d="M82.7842 37.2427C84.07 36.7799 85.3865 36.317 86.6417 35.8233C87.5295 35.4839 88.3868 35.3914 88.8154 36.4404C89.2134 37.4895 88.6317 38.0758 87.7132 38.4152C85.0497 39.4643 82.4168 40.5134 79.7532 41.5933C78.7735 41.9944 77.8551 41.9327 77.4571 40.8836C77.0591 39.8654 77.7938 39.2483 78.6511 38.9089C80.0288 38.3843 81.4065 37.8907 82.8148 37.397C82.8148 37.3353 82.7842 37.3044 82.7842 37.2427Z" fill="#01BDE0"/>
<path d="M27.6457 40.4824C26.3292 40.1122 24.9822 39.7419 23.6657 39.3716C22.7472 39.0939 21.89 39.0631 21.5532 40.1739C21.2165 41.2538 21.8594 41.7784 22.8085 42.0869C25.5332 42.92 28.258 43.784 30.9828 44.6479C31.9931 44.9565 32.9116 44.8639 33.2177 43.7531C33.5239 42.704 32.7891 42.1486 31.8706 41.8709C30.4623 41.439 29.0234 41.0687 27.6151 40.6676C27.6151 40.575 27.6457 40.5133 27.6457 40.4824Z" fill="#01BDE0"/>
<path d="M14.971 37.2427C13.6852 36.7799 12.3687 36.317 11.1135 35.8233C10.2256 35.4839 9.36839 35.3914 8.93978 36.4404C8.54178 37.4895 9.12347 38.0758 10.0419 38.4152C12.7055 39.4643 15.3384 40.5134 18.0019 41.5933C18.9816 41.9944 19.9001 41.9327 20.2981 40.8836C20.6961 39.8654 19.9613 39.2483 19.1041 38.9089C17.7264 38.3843 16.3487 37.8907 14.9404 37.397C14.9404 37.3353 14.971 37.3044 14.971 37.2427Z" fill="#01BDE0"/>
<path d="M97.3878 19.223C95.6121 16.8471 95.9795 14.2861 96.3163 11.6634C96.4081 11.0463 96.3775 10.4292 96.3469 9.81205C96.0714 3.61009 92.2444 -1.51193 84.5293 0.431965C75.4978 2.68442 66.4356 4.93687 57.4041 7.25104C53.1791 8.33098 48.9542 9.13323 44.5762 8.05328C40.8105 7.12762 37.0448 6.23281 33.3097 5.27629C26.6355 3.61009 19.992 1.85132 13.2872 0.308543C7.53151 -1.01825 3.18412 2.09816 2.23504 7.96072C1.86766 10.244 2.11258 12.4656 2.38812 14.7181C2.51058 15.5512 2.38812 16.1683 1.86766 16.8471C0.58181 18.4825 -0.030499 20.4264 0.000116433 22.5554C0.0307319 25.5792 0.000116433 28.6339 0.000116433 31.6578C0.000116433 34.7125 1.22473 36.3478 3.82705 36.7798C0.428733 42.3029 0.979811 47.5484 5.41905 52.4853C8.78675 56.2188 13.0729 58.5947 17.6346 60.4769C27.7071 64.6115 38.3 65.8457 49.0767 66C60.1288 65.8457 70.9667 64.5189 81.2229 60.1374C86.1826 58.0084 90.8055 55.2931 94.0201 50.6956C96.653 46.9313 97.5103 42.7041 95.1529 38.662C94.7855 38.0449 94.51 37.4278 94.2957 36.8106C96.653 36.4095 98.0001 34.7125 98.0307 32.0898C98.0614 28.8499 98.0307 25.6101 98.0307 22.3703C98.0001 21.2595 98.0307 20.0561 97.3878 19.223ZM92.8261 47.9804C91.3566 50.7265 89.091 52.7013 86.5499 54.3983C80.8249 58.1935 74.4569 60.2917 67.8439 61.6494C53.4241 64.6115 39.0654 64.2721 24.8292 60.4151C19.3491 58.9341 14.0832 56.805 9.58275 53.1641C6.82736 50.9425 4.56182 48.3198 4.10258 44.5862C3.91889 43.0435 4.10258 41.5624 4.74551 40.1122C5.23536 40.4516 5.26597 40.9453 5.44966 41.3464C7.71521 46.6227 13.8077 48.69 18.7368 45.8205C19.594 45.3268 19.8389 45.4811 20.2675 46.2833C23.0535 51.1585 28.6868 52.6087 33.4322 49.6157C34.32 49.0603 34.5649 49.3071 35.0548 50.0168C38.1776 54.5217 43.7802 55.54 48.2194 52.3618C48.9848 51.8373 49.3522 51.9299 50.0257 52.4236C54.3425 55.5091 60.0676 54.4909 63.0985 50.0785C63.619 49.3071 63.9251 49.0603 64.8436 49.6466C69.4359 52.5778 75.161 51.0968 77.9164 46.345C78.2532 45.7588 78.345 45.1725 79.3247 45.7279C84.8049 48.7209 90.4075 46.7153 92.9486 40.9453C93.0404 40.7293 93.1629 40.4825 93.316 40.1431C94.3875 42.9201 94.1426 45.5119 92.8261 47.9804ZM19.0735 40.6676H19.1041C19.1041 40.8836 19.1041 41.0996 19.1041 41.3156C19.1348 42.3338 18.7368 42.9509 17.9714 43.4754C15.7058 45.0491 13.3178 45.1725 10.8686 43.9383C8.2969 42.6423 7.1029 40.4207 7.07228 37.5512C7.07228 37.3352 7.07228 37.1192 7.07228 36.9032C9.06229 36.9032 11.0523 36.9032 13.0423 36.8724C13.7464 36.8724 14.1444 37.0575 14.42 37.7672C15.3078 39.8345 16.8998 40.6985 19.0735 40.6676ZM30.6156 26.8443C30.6156 25.5792 30.6156 24.3142 30.6156 23.0491C30.6462 20.2412 32.33 17.8962 34.8405 17.094C37.4122 16.2609 40.0451 17.1557 41.729 19.439C44.0863 22.6788 46.3825 25.9495 47.3622 29.8682C47.454 30.2384 47.5459 30.5778 47.6071 30.9481C48.097 33.756 47.9133 36.5947 47.7602 39.4334C47.7602 39.9888 47.7602 40.575 47.7602 41.1304C47.7602 41.9327 47.7602 42.7349 47.7602 43.5372C47.7602 43.9383 47.7602 44.3394 47.7602 44.7714C47.7602 45.9748 47.7602 47.1781 47.7908 48.3815C47.8214 49.3997 47.4234 49.986 46.6887 50.5414C42.7086 53.5035 36.5549 50.9733 35.9733 45.9747C35.912 45.4502 35.8508 44.8948 35.8202 44.3703C36.8917 44.3703 37.9633 44.3703 39.0348 44.3703C41.086 44.3703 43.1066 44.3703 45.1579 44.3703C46.107 44.3703 46.9642 43.9074 47.7908 43.5372C47.7908 42.7349 47.7908 41.9327 47.7908 41.1304C47.7908 40.575 47.7908 39.9888 47.7908 39.4334C47.7908 39.6802 47.7602 39.9271 47.7602 40.1431C47.699 41.3156 46.7193 41.9018 45.5865 41.9018C42.3106 41.9327 39.0348 41.9327 35.7589 41.9327C34.9936 41.9327 34.2282 41.9327 33.4322 41.9018C33.2485 41.9018 33.0954 41.9018 32.9117 41.9018C31.4422 41.871 30.6462 40.9453 30.6462 39.3717C30.6156 36.5638 30.6462 33.7251 30.6462 30.9172C30.6462 30.3618 30.6462 29.8064 30.6462 29.2819C30.6462 28.4488 30.6156 27.6466 30.6156 26.8443ZM67.5378 26.8443C67.5378 27.6466 67.5071 28.4488 67.5071 29.251C67.5071 29.8682 67.5071 30.5161 67.5071 31.1332H67.4765C67.4765 33.9411 67.4765 36.7798 67.4765 39.5877C67.4765 41.1304 66.5887 41.871 65.1804 41.9018C65.0273 41.9018 64.8742 41.9018 64.6905 41.9018C63.9251 41.9018 63.1291 41.9327 62.3638 41.9327C59.1185 41.9635 55.8733 41.9327 52.628 41.9018C51.281 41.9018 50.4544 41.1613 50.3625 39.7111C50.1788 37.2735 50.1176 34.8667 50.3625 32.5217C50.4544 31.6269 50.6074 30.7321 50.7911 29.8373C51.3728 27.2146 52.475 24.6844 54.3731 22.3703C55.1997 21.352 55.8427 20.1487 56.6693 19.0996C58.2613 17.094 60.7411 16.2609 63.0985 17.0014C65.609 17.8036 67.2928 19.5007 67.4459 22.1851C67.5378 23.7588 67.5378 25.3015 67.5378 26.8443ZM71.0279 40.6367C72.9261 40.6367 74.7936 40.6367 76.6918 40.6367C76.6612 41.4081 76.5999 42.1795 76.5387 42.9818C76.2632 45.6045 74.6099 47.3632 72.1913 48.2581C69.7727 49.1529 67.4765 48.8443 65.4559 47.1473C64.9048 46.6844 64.6905 46.1599 64.6905 45.4193C64.6905 45.0491 64.6905 44.6788 64.6905 44.3394C64.7824 44.3394 64.8742 44.3394 64.9967 44.3394C67.0479 44.3085 68.6705 43.4446 69.5278 41.5007C69.8339 40.6984 70.3238 40.6367 71.0279 40.6367ZM50.1788 43.3829C50.1788 42.5806 50.1788 41.7475 50.1788 40.9453C50.1788 39.0631 50.2094 37.1809 50.1788 35.2987C50.1788 37.1809 50.1788 39.0631 50.1788 40.9453C50.1788 41.7475 50.1788 42.5806 50.1788 43.3829C51.0054 43.7532 51.8933 44.4011 52.873 44.3703C56.0264 44.3394 59.1798 44.3703 62.3331 44.3703C62.3331 44.4937 62.3331 44.6171 62.3331 44.7405C62.2719 47.6409 60.9554 49.8934 58.2919 51.1276C55.8427 52.2384 53.4547 52.0841 51.2197 50.3871C50.485 49.8317 50.1176 49.1837 50.1176 48.1963C50.1482 46.993 50.1482 45.7896 50.1482 44.5862C50.1788 44.1851 50.1788 43.784 50.1788 43.3829ZM28.6562 41.3773C29.544 43.5372 31.2891 44.3394 33.4934 44.3394C33.4934 44.6171 33.4934 44.8948 33.524 45.1725C33.5546 46.0982 33.3097 46.7461 32.6056 47.2707C30.4012 48.9677 27.9826 49.1529 25.5334 48.0421C23.0229 46.8696 21.584 44.8022 21.5228 41.9635C21.5228 41.5007 21.4922 41.0687 21.4922 40.6059C23.3903 40.6059 25.2885 40.6059 27.1866 40.6059C27.7989 40.6367 28.35 40.6059 28.6562 41.3773ZM83.4272 38.014C83.8252 37.0575 84.3456 36.8724 85.2641 36.9032C87.1929 36.9341 89.1216 36.9649 91.0504 36.9341C91.0504 37.3043 91.0198 37.7055 91.0198 38.0757C90.8667 42.3338 87.0704 45.4502 82.9373 44.648C80.3962 44.1543 78.9879 43.3212 79.0492 40.6676C79.141 40.6676 79.2022 40.6676 79.2941 40.6676C81.2229 40.6367 82.6924 39.7728 83.4272 38.014ZM95.6121 32.3675C95.5815 33.6017 94.908 34.4039 93.6527 34.4656C93.5915 34.4656 93.5303 34.4656 93.469 34.4656C92.673 34.4656 91.9077 34.4656 91.1116 34.4656C89.0298 34.4656 86.9786 34.4656 84.8967 34.4965C84.0701 34.4965 83.8558 34.1879 83.8864 33.4165C83.917 30.7938 83.9476 28.1711 83.8558 25.5484C83.8558 25.425 83.8558 25.3015 83.8252 25.209C83.7639 24.345 83.5803 23.5428 83.2741 22.7714C81.7433 18.8527 77.5184 16.2609 73.2322 17.0631C73.0179 17.094 72.8342 17.1248 72.6505 17.2174C72.0382 17.4334 71.7321 17.8653 71.8545 18.5133C71.9464 19.1921 72.375 19.5007 73.0485 19.439C74.1201 19.3773 75.1916 19.2538 76.2632 19.4698C78.2532 19.9327 79.8452 21.1669 80.733 22.8639C81.1004 23.5736 81.3759 24.345 81.4678 25.1781C81.4984 25.4558 81.529 25.7335 81.529 26.0112C81.5902 29.251 81.5596 32.4909 81.529 35.7307C81.529 37.3969 80.7943 38.1683 79.2022 38.23C79.141 38.23 79.0492 38.23 78.9879 38.23C78.2532 38.23 77.5184 38.23 76.7836 38.23C74.9773 38.23 73.1404 38.1992 71.3341 38.2609C70.2932 38.2917 69.9564 38.014 69.987 36.9032C70.0176 34.3422 70.0482 31.7812 70.0482 29.2202C70.0482 28.4179 70.0482 27.6157 70.0482 26.8135C70.0482 25.6101 70.0176 24.4067 70.0176 23.1725C69.9564 17.8653 65.9764 14.0393 60.8942 14.3787C58.1082 14.5638 55.9651 15.9214 54.4037 18.2048C52.5668 20.9509 50.5156 23.5428 49.1073 26.9986C47.6683 23.3576 45.6171 20.4881 43.5047 17.6802C41.4534 14.9341 38.5756 13.8541 35.2385 14.5021C31.7177 15.1809 29.4828 17.4334 28.5643 20.92C28.35 21.7531 28.35 22.648 28.35 23.5119C28.35 24.5919 28.35 25.6718 28.35 26.7826C28.35 27.5848 28.35 28.3871 28.35 29.1893C28.35 31.7812 28.35 34.3731 28.3806 36.9341C28.3806 37.9523 28.0745 38.23 27.0948 38.1992C25.2578 38.1683 23.3903 38.1683 21.5534 38.1683C20.7574 38.1683 19.9614 38.1683 19.196 38.1683H19.1654C17.3897 38.1683 16.6549 37.4278 16.6243 35.669C16.5937 32.4909 16.5937 29.2819 16.6243 26.1038C16.6243 25.7644 16.6549 25.4558 16.7161 25.1473C16.8386 24.2833 17.0835 23.5119 17.4509 22.8022C18.6143 20.6115 20.9105 19.2538 23.7271 19.2847C24.6762 19.2847 26.0539 19.8092 26.0845 18.2048C26.1151 16.7237 24.7068 16.9088 23.7577 16.878C19.6552 16.7237 16.2263 19.1304 14.8792 22.7097C14.6037 23.4811 14.3894 24.2833 14.2975 25.1164C14.2669 25.3941 14.2363 25.7027 14.2363 25.9804C14.2057 28.3871 14.1751 30.8247 14.2363 33.2314C14.2669 34.1879 13.9608 34.4656 13.0117 34.4348C11.0523 34.4039 9.12352 34.4039 7.16413 34.4039C6.45997 34.4039 5.75582 34.4039 5.05166 34.4039C4.95982 34.4039 4.83736 34.4039 4.74551 34.4039C3.09228 34.3114 2.47997 33.5708 2.44935 31.7812C2.41874 28.6031 2.35751 25.3941 2.44935 22.216C2.60243 16.7545 8.14382 13.7616 12.7974 16.6003C13.5321 17.0631 14.3281 17.5259 14.9098 16.5694C15.4915 15.6437 14.7874 15.0575 14.0526 14.5947C11.4809 12.8976 8.72552 12.6508 5.87828 13.7616C4.95982 14.101 4.62305 14.0393 4.62305 12.9593C4.62305 11.5091 4.43935 10.0898 4.59243 8.63954C5.11289 3.9495 8.26628 1.48105 12.7668 2.561C19.9614 4.25805 27.0948 6.14024 34.2894 7.92986C37.2591 8.67039 40.2594 9.31836 43.1985 10.1206C48.3113 11.4782 53.271 10.7686 58.2919 9.47264C67.3541 7.09676 76.4469 4.81345 85.5703 2.62271C90.2238 1.51191 93.316 3.88779 93.867 8.67039C94.0201 10.1206 93.8977 11.54 93.8364 12.9902C93.8058 14.0701 93.6221 14.4404 92.4281 13.9158C89.2747 12.5273 86.2438 12.8976 83.4884 14.9958C82.8149 15.5203 81.927 16.1374 82.723 17.1248C83.4884 18.0813 84.2232 17.4334 84.9579 16.878C87.0704 15.2735 89.3666 15.0883 91.724 16.1683C94.0507 17.2482 95.4897 19.0996 95.5815 21.6606C95.704 25.2707 95.6427 28.8191 95.6121 32.3675Z" fill="white"/>
</svg>
