<svg width="100" height="91" viewBox="0 0 100 91" fill="none" xmlns="http://www.w3.org/2000/svg">
<path d="M5.76454 14.2579C9.03432 12.6911 12.055 12.7538 14.9511 14.6026C15.6673 15.0413 16.477 15.574 15.8542 16.5768C15.2625 17.5482 14.4528 17.1408 13.7054 16.6395C13.6743 16.6081 13.612 16.5768 13.5809 16.5454C11.3387 15.1667 9.06547 15.1667 6.79219 16.4201C4.61234 17.6109 3.42899 19.5537 3.36671 22.0293C3.27328 25.3822 3.30442 28.7038 3.33556 32.0568C3.36671 33.6236 4.08294 34.3757 5.63998 34.407C8.44265 34.4697 11.2453 34.407 14.048 34.4384C14.9511 34.4384 15.0445 33.9996 15.0445 33.2789C15.0134 30.866 14.9822 28.4845 15.0445 26.0716C15.1691 20.4625 19.5288 16.5141 25.0718 16.9528C26.006 17.0155 27.0026 17.1408 26.9403 18.3316C26.878 19.491 25.9126 19.3657 25.0407 19.3344C20.463 19.115 17.5358 21.9353 17.5046 26.6357C17.4735 29.5186 17.5046 32.3702 17.5046 35.2531C17.5046 37.5406 18.1274 38.1673 20.3384 38.1673C22.892 38.1673 25.4144 38.136 27.9679 38.1987C28.9644 38.23 29.307 37.9167 29.2758 36.8826C29.2135 32.4328 29.2447 28.0145 29.2447 23.5647C29.2758 19.0837 31.518 15.7934 35.286 14.6966C39.054 13.5685 42.6041 15.01 45.0953 18.6136C45.7804 19.585 46.4344 20.5878 47.1195 21.5592C47.5866 22.2486 47.9603 23.0007 47.1195 23.5961C46.2787 24.1915 45.687 23.6587 45.1888 22.9693C44.4414 21.8412 43.694 20.7131 42.8843 19.6164C41.1405 17.1722 38.4624 16.2007 35.7842 17.0782C33.3241 17.8616 31.6425 20.1804 31.6114 23.0634C31.5491 28.4532 31.5802 33.8116 31.6114 39.2014C31.6114 41.0816 32.421 41.8337 34.3206 41.865C36.9676 41.8963 39.6146 41.865 42.2615 41.865C43.1335 41.865 44.0677 41.959 44.0677 43.0871C44.0365 44.2152 43.0712 44.2779 42.2304 44.2779C39.6768 44.2779 37.1544 44.2465 34.6009 44.2779C32.3276 44.3092 30.5215 43.4945 29.5872 41.301C29.307 40.6116 28.8399 40.5802 28.2482 40.5802C25.5389 40.5802 22.8608 40.5489 20.1516 40.6116C17.8783 40.6429 16.1967 39.7968 15.387 37.6033C15.1068 36.8512 14.5774 36.9139 14.0168 36.9139C11.4322 36.9139 8.81634 36.9139 6.23166 36.9139C2.71275 36.8512 1.00001 35.1277 1.00001 31.5868C1.00001 28.5472 1.03115 25.5389 1.00001 22.4993C0.968866 20.4311 1.5294 18.551 2.77503 16.9528C3.36671 16.1694 3.49127 15.4173 3.36671 14.5086C3.0553 12.3464 2.83731 10.1529 3.211 7.95936C4.26979 1.97416 8.53607 -1.06544 14.3905 0.344686C22.2692 2.19352 30.0855 4.2617 37.933 6.20454C40.9848 6.9566 44.0365 7.80268 47.1818 8.33539C51.3546 9.05612 55.3095 8.02203 59.2955 6.98794C68.0772 4.76307 76.8589 2.47554 85.7029 0.376023C92.2425 -1.19078 97.007 2.60088 97.2561 9.36948C97.2873 10.0902 97.3495 10.8423 97.2561 11.563C96.8824 14.2579 96.6644 16.8588 98.4395 19.2717C99.1246 20.2118 99.0311 21.5906 99.0311 22.7813C99.0623 25.7583 99.0623 28.7352 99.0311 31.7121C99 35.0651 97.225 36.8199 93.8929 36.8512C91.3082 36.8826 88.6924 36.8826 86.1077 36.8512C85.2981 36.8512 84.831 37.0079 84.4573 37.854C83.6787 39.6401 82.2463 40.5489 80.2844 40.5489C76.9523 40.5489 73.6514 40.5489 70.3194 40.5489C69.4786 40.5489 68.6378 40.4235 68.6378 39.3895C68.6378 38.2927 69.4786 38.136 70.4128 38.136C73.5891 38.136 76.7344 38.1673 79.9107 38.136C81.8103 38.136 82.4331 37.5093 82.4643 35.5978C82.4954 32.4642 82.4954 29.3306 82.4643 26.197C82.402 21.8726 79.319 19.021 74.9905 19.303C74.8348 19.303 74.6791 19.3344 74.5234 19.3344C73.6826 19.4597 72.8418 19.3657 72.7795 18.3003C72.7172 17.2975 73.5269 17.0468 74.3677 16.9528C76.3607 16.7335 78.3225 16.9528 80.0976 17.9869C83.0871 19.6791 84.7687 22.2173 84.831 25.7269C84.8932 28.2338 84.8932 30.7407 84.831 33.2476C84.831 34.125 85.1112 34.4697 85.9832 34.4384C88.6924 34.407 91.3705 34.4697 94.0798 34.407C95.8548 34.3757 96.571 33.6863 96.571 31.9315C96.6022 28.7038 96.6022 25.4449 96.571 22.2173C96.5399 19.4597 95.232 17.3915 92.7719 16.2321C90.3117 15.0726 87.945 15.2607 85.7652 17.0155C85.1112 17.5482 84.395 18.0182 83.741 17.2348C83.0559 16.3888 83.5853 15.6994 84.3016 15.1353C86.9797 13.0358 89.938 12.4718 93.0521 13.8192C94.5157 14.4459 94.8271 13.9759 94.8271 12.6284C94.8271 10.8109 95.0451 8.99345 94.5157 7.17595C93.4569 3.76032 91.2771 2.16218 87.7582 2.50688C84.613 2.82024 81.5923 3.85433 78.5094 4.60639C71.129 6.42389 63.7175 8.27272 56.3683 10.2156C51.6038 11.469 46.9326 10.9676 42.2304 9.77685C32.9816 7.39531 23.7328 5.0451 14.484 2.82024C8.9409 1.47279 5.63998 4.13635 5.422 9.87086C5.35971 11.281 5.54656 12.6911 5.76454 14.2579Z" fill="white"/>
<path d="M5.8269 65.0224C4.48785 68.25 4.92382 71.0389 6.54314 73.6398C8.75414 77.2122 12.1173 79.4997 15.7297 81.3799C21.9267 84.6075 28.5597 86.3936 35.4106 87.4591C42.4484 88.5558 49.5485 88.9005 56.6486 88.3365C57.5829 88.2738 58.5794 88.2738 58.6105 89.4959C58.6416 90.6553 57.6763 90.6867 56.8355 90.718C44.1923 91.5014 31.7672 90.4047 19.778 85.9236C15.0134 84.1374 10.5603 81.8186 6.97911 78.0896C3.33564 74.3292 1.49834 70.0049 3.33564 64.7091C3.58477 63.9883 3.83389 63.1736 4.33215 62.6095C5.6712 61.0427 5.79576 59.2879 5.70234 57.3451C5.60892 55.6216 5.64006 53.8981 5.70234 52.1746C5.76462 49.6991 7.47736 47.9443 9.93749 47.8816C12.5222 47.8189 15.138 47.8502 17.7227 47.8502C18.5323 47.8502 19.2486 48.0696 19.2797 49.0097C19.3109 50.0438 18.5635 50.2631 17.6915 50.2318C15.2937 50.2318 12.927 50.2004 10.5292 50.2318C8.81642 50.2318 8.10018 50.8898 8.10018 52.5507C8.06904 55.9976 8.0379 59.4446 8.13132 62.8916C8.1936 65.6805 9.50151 67.78 12.0239 69.0021C14.4529 70.1615 16.8196 70.0049 19.0929 68.438C19.8402 67.9053 20.1205 67.2786 20.1205 66.3385C20.0582 63.1109 20.0894 59.852 20.1205 56.6243C20.1517 53.5847 21.8333 51.8926 24.8539 51.8299C27.1895 51.7986 29.525 51.8299 31.8606 51.8299C32.7325 51.8299 33.6668 51.9553 33.6979 53.052C33.729 54.1801 32.7948 54.2741 31.9229 54.2741C29.6496 54.2741 27.3452 54.2741 25.0719 54.2741C23.1412 54.2741 22.5184 54.8695 22.5184 56.781C22.5184 60.0713 22.4872 63.3616 22.5184 66.6519C22.5495 70.8509 25.6013 73.7965 29.743 73.7652C30.7084 73.7652 32.1409 73.2638 32.1097 74.8933C32.0786 76.3661 30.6772 76.1467 29.6807 76.1467C26.0061 76.1467 23.2035 74.5486 21.3039 71.3836C20.9613 70.7883 20.8056 70.1615 19.8714 70.7883C14.8266 74.0785 8.13132 71.2583 6.29401 65.9625C6.16945 65.7745 6.04489 65.5551 5.8269 65.0224Z" fill="white"/>
<path d="M62.8455 16.9215C69.2916 16.9215 73.3711 23.0947 70.8798 28.8292C68.6065 34.031 66.0841 39.1074 63.5929 44.2152C62.4407 46.5968 59.9494 47.4742 57.5204 46.3774C53.5967 44.5913 49.7352 42.7111 45.9049 40.7996C43.8808 39.7968 42.7286 37.4153 43.5694 35.3785C45.469 30.8347 47.2751 26.1656 51.2611 22.8754C53.9392 20.6818 56.991 19.115 60.0117 17.5169C60.9459 17.0155 62.067 16.8902 62.8455 16.9215ZM69.2294 25.6643C69.2294 20.8698 64.5582 17.8929 60.4477 19.9611C58.2678 21.0579 56.1814 22.3426 54.1572 23.6588C51.8528 25.1629 50.0778 27.1997 48.8322 29.6439C47.8979 31.4928 46.9949 33.3729 46.1229 35.2531C45.3444 36.9139 45.7492 38.042 47.3997 38.8568C50.9809 40.6116 54.5621 42.3351 58.1744 44.0272C59.8249 44.8106 60.9148 44.3719 61.7244 42.6798C64.0289 37.854 66.3333 32.9969 68.6377 28.1712C69.0425 27.3251 69.2605 26.4477 69.2294 25.6643Z" fill="white"/>
<path d="M42.168 78.9356C35.9087 78.9042 31.6425 72.6997 33.6043 67.1845C35.0057 63.2675 37.0921 59.6326 39.1162 55.9976C40.2373 54.0234 42.604 53.3653 44.6904 54.3681C47.2128 55.5589 49.7352 56.8123 52.1954 58.1598C54.2507 59.2879 54.9669 61.356 53.9393 63.5182C52.0708 67.4039 50.1712 71.2896 48.1159 75.0812C46.7146 77.6508 44.379 78.9042 42.168 78.9356ZM42.0746 76.554C43.5694 76.4914 45.1576 75.5513 46.1229 73.7025C48.0225 70.0675 49.7975 66.3698 51.666 62.7035C52.2265 61.6067 51.9774 60.7607 50.9497 60.1966C48.5519 58.9432 46.1541 57.7211 43.7251 56.5616C42.604 56.0289 41.5141 56.3109 40.9224 57.4704C39.1785 60.8547 37.3412 64.1763 35.9088 67.6859C34.2583 71.6343 37.4969 76.554 42.0746 76.554Z" fill="white"/>
<path d="M51.417 32.5269C52.4446 29.7379 54.1262 27.9205 56.1815 26.5103C57.9566 25.2882 59.9184 24.2855 61.7869 23.1887C62.9079 22.5306 63.9667 22.6247 64.9321 23.5334C65.8663 24.4108 65.9909 25.5076 65.4926 26.667C65.4615 26.7297 65.4303 26.761 65.4303 26.8237C64.6518 29.2992 63.3439 30.772 60.4167 30.772C57.4894 30.772 54.5934 31.6181 51.417 32.5269Z" fill="#01BDE0"/>
<path d="M39.023 69.9735C39.1164 68.344 40.0506 67.0592 40.7357 65.6804C40.9537 65.2417 41.2962 65.3044 41.6388 65.5864C41.8256 65.7431 42.0748 65.8998 42.2616 66.0565C43.1024 66.8085 44.8151 67.1219 44.8463 68.062C44.9086 69.5661 43.7875 70.9449 42.9778 72.261C42.1993 73.5145 40.7668 73.3578 39.7703 72.0103C39.3032 71.3836 38.9295 70.7569 39.023 69.9735Z" fill="#01BDE0"/>
</svg>
