<svg width="57" height="108" viewBox="0 0 57 108" fill="none" xmlns="http://www.w3.org/2000/svg">
<path d="M41.586 89.7188C42.2634 86.1045 40.6828 83.5443 37.1451 82.4901C30.4462 80.4947 23.5591 80.4947 16.8602 82.5654C13.9247 83.469 12.3441 85.6527 12.6451 88.4011C12.7204 89.2294 12.8333 90.0953 12.9462 90.8859C13.3978 94.6509 13.8494 98.19 12.5322 101.353C12.5322 103.499 13.0215 105.193 13.9623 106.134C14.7903 106.962 15.957 107.226 17.3494 106.812C20.6236 105.908 23.8978 105.456 27.1344 105.456C30.4086 105.456 33.7204 105.908 36.9946 106.849C37.3709 106.962 37.7473 107 38.1236 107C39.8548 107 41.2096 105.758 41.586 103.8C41.8118 102.633 41.8871 101.654 41.6236 100.825C40.4193 96.9099 40.9462 93.032 41.586 89.7188ZM39.2527 104.252C38.9516 104.59 38.5 104.779 37.8602 104.779C37.2957 104.779 36.5806 104.628 35.4892 104.402C32.6666 103.762 29.8064 103.423 27.0591 103.423C23.8978 103.423 20.7365 103.837 17.6505 104.703C17.1613 104.816 16.7849 104.892 16.4086 104.892C15.8441 104.892 15.3924 104.703 15.0537 104.364C14.5269 103.8 14.4892 102.934 14.5268 102.331C14.5268 102.143 14.5268 101.917 14.5268 101.691C14.5268 101.051 14.5269 100.336 14.7903 99.6583C15.957 96.7969 15.4677 93.8603 14.8279 90.8483C13.9247 86.5939 15.0914 84.8244 19.3817 83.8078L19.6451 83.7325C20.2473 83.5819 20.8871 83.4313 21.5268 83.3937C22.9193 83.2807 24.2742 83.2054 25.4785 83.1301C25.8924 83.0925 26.3064 83.0925 26.6828 83.0548H26.7204H26.758C27.2849 83.0925 27.8118 83.0925 28.301 83.1301C31.1989 83.2431 33.9462 83.3184 36.5806 84.3349C39.0268 85.2762 39.8172 86.4809 39.629 89.0788C39.5914 89.8318 39.4408 90.66 39.2527 91.6013C38.6129 94.5003 38.3871 96.9099 39.3656 99.2818C39.5537 99.7336 39.5914 100.185 39.629 100.6V100.788C39.8172 102.52 39.8548 103.611 39.2527 104.252Z" fill="white"/>
<path d="M40.5699 61.2181C41.3978 56.9637 39.8548 54.5542 35.6397 53.3117C33.4193 52.6717 31.0107 52.3705 27.8118 52.3705C27.5107 52.3705 27.2096 52.3705 26.9086 52.3705C26.6075 52.3705 26.344 52.3705 26.043 52.3705C24.4247 52.3705 22.6182 52.5211 20.6612 52.7846C17.6881 53.1988 15.6935 54.14 14.6021 55.646C13.5483 57.0767 13.2849 59.1474 13.7365 61.9711C14.2258 64.7948 14.3763 67.2044 13.6236 69.7269C13.2473 70.9694 13.2096 72.2871 13.4731 73.6425C13.8871 75.5626 15.0914 76.6544 16.7473 76.6544C17.1236 76.6544 17.5376 76.5791 17.9516 76.5038C20.9623 75.6755 24.0107 75.2614 27.0215 75.2614C30.0322 75.2614 33.1182 75.6755 36.129 76.5038C36.543 76.6168 36.9193 76.6544 37.2957 76.6544C38.9892 76.6544 40.2311 75.525 40.6075 73.6425C40.8709 72.2871 40.8709 71.2329 40.5699 70.2917C39.6666 67.1667 40.043 64.0795 40.5699 61.2181ZM38.5752 73.9437C38.2742 74.3202 37.8225 74.5084 37.1828 74.5084C36.7311 74.5084 36.1666 74.4331 35.301 74.2072C32.5537 73.5672 29.8064 73.2283 27.0967 73.2283C24.2365 73.2283 21.3763 73.6048 18.5537 74.3578C17.9516 74.5084 17.4623 74.6214 17.0483 74.6214C16.5967 74.6214 16.2204 74.4708 15.9569 74.2072C15.4677 73.7178 15.4301 72.9271 15.4301 71.9482V71.8353C15.4301 71.647 15.4301 71.4212 15.5053 71.1576C16.6344 67.3926 16.1828 63.59 15.6182 60.3898C15.0161 57.039 16.5967 55.9095 19.1559 55.1942C21.8655 54.4412 24.5752 54.4036 27.172 54.3659H27.9247H27.9623C28.4516 54.4036 28.9785 54.4412 29.4677 54.4789C31.3871 54.5918 33.1935 54.7048 35 55.1942C37.7473 55.9472 39.2903 57.152 38.6129 60.691C37.8978 64.343 37.9354 67.7691 38.6881 71.12C38.9892 72.4 39.0645 73.3036 38.5752 73.9437Z" fill="white"/>
<path d="M39.5538 32.8304C40.156 29.2537 38.6506 27.0324 34.9248 26.0158C32.742 25.4134 30.4463 25.1499 27.4355 25.1499C27.2474 25.1499 27.0592 25.1499 26.9087 25.1499C26.6452 25.1499 26.4571 25.1499 26.2312 25.1499C24.8011 25.1499 23.1076 25.3005 21.0753 25.6017C18.3657 26.0158 16.5592 26.8818 15.5807 28.3125C14.6022 29.7055 14.414 31.6633 14.9409 34.2987C15.3549 36.1812 15.6183 38.4402 14.828 40.8121C14.4893 41.791 14.4517 42.9958 14.6775 44.5771C14.9409 46.3089 16.1829 47.4761 17.7259 47.4761C18.0269 47.4761 18.328 47.4384 18.6291 47.3631C21.4893 46.6101 24.3872 46.2336 27.2097 46.2336C30.07 46.2336 32.9302 46.6101 35.7528 47.4008C36.0162 47.4761 36.3173 47.5137 36.5807 47.5137C38.0485 47.5137 39.2904 46.4219 39.6291 44.9159C39.8173 44.0123 39.9678 42.9958 39.7044 42.0922C38.6882 38.8167 39.0646 35.7294 39.5538 32.8304ZM37.5968 44.5394C37.1076 45.1795 36.3173 45.1795 36.0538 45.1795C35.6022 45.1795 35.0377 45.1042 34.2474 44.9536C31.7635 44.4641 29.3173 44.2006 27.0216 44.2006C24.3872 44.2006 21.7904 44.5394 19.3065 45.1795C18.8925 45.2924 18.5162 45.3301 18.2151 45.3301C17.6506 45.3301 17.199 45.1418 16.8979 44.803C16.4087 44.2382 16.4087 43.4476 16.4839 42.8828C16.4839 42.7699 16.5216 42.6193 16.5216 42.5063C16.5216 42.1675 16.5592 41.7533 16.7097 41.3769C17.7635 38.7037 17.3495 36.0306 16.785 33.2822C16.1076 30.0443 17.0108 28.6513 20.2474 27.7854C22.3549 27.2206 24.4248 27.183 26.4571 27.1077H27.0216C29.3549 27.1453 31.9893 27.183 34.4732 27.8983C37.2581 28.689 38.199 30.1949 37.5968 32.9434C37.0323 35.4282 36.6183 38.4402 37.5968 41.6404C37.9355 42.9205 38.0861 43.8617 37.5968 44.5394Z" fill="white"/>
<path d="M38.9139 7.64286L38.9891 7.26636C39.4784 4.1038 38.2364 2.14602 35.0375 1.05419C32.5913 0.188248 30.1074 0.0752991 27.1343 0C26.645 0.0376495 26.1934 0.0376495 25.7042 0.0752991C24.5751 0.112949 23.4461 0.188248 22.3171 0.301196C21.4515 0.376495 20.5483 0.602393 19.5321 0.903589C15.9569 2.03308 14.6773 4.1791 15.3923 7.79346C15.8816 10.316 16.2579 12.8008 15.3171 15.3987C14.9784 16.3399 15.0913 17.4317 15.2418 18.373C15.5052 20.1049 16.7095 21.1967 18.2902 21.1967C18.5913 21.1967 18.93 21.159 19.2687 21.0461C21.8655 20.3308 24.5375 19.9919 27.1343 19.9919C29.7311 19.9919 32.4031 20.3684 35.0375 21.0461C35.3386 21.1214 35.6397 21.159 35.9784 21.159C37.559 21.159 38.8009 20.0296 38.9891 18.2977C39.102 17.4694 39.2149 16.5281 38.9891 15.8505C38.0483 13.0644 38.4622 10.316 38.9139 7.64286ZM36.8816 18.4483C36.5805 18.8248 36.1289 19.0507 35.4891 19.0507C35.1128 19.0507 34.6235 18.9754 33.9837 18.8248C29.3923 17.7706 24.688 17.7706 20.0214 18.8624C19.4945 18.9754 19.0805 19.0507 18.7418 19.0507C18.1397 19.0507 17.688 18.8624 17.387 18.4859C16.9354 17.8835 17.0859 17.0176 17.2741 16.2646C18.0268 13.5538 18.0268 10.6548 17.3117 6.96517C16.8977 4.96974 17.8386 3.50141 19.9085 2.86137C22.3923 2.10837 24.9891 2.03308 26.8708 1.99543C29.5052 2.03308 31.8762 2.10837 34.2472 2.89901C36.6558 3.68966 37.4085 4.89444 36.9192 7.26636C36.2042 10.7301 36.2042 13.4409 36.9192 16.0011C37.1827 16.867 37.3708 17.8082 36.8816 18.4483Z" fill="white"/>
<path d="M55.5859 76.2403C55.5859 78.2358 55.5859 80.2312 55.5859 82.2266C55.5859 83.4314 55.2095 84.4479 53.8923 84.4479C52.5751 84.4856 52.1235 83.5067 52.0859 82.3019C51.973 78.1605 51.8601 74.0567 51.7848 69.9152C51.7472 68.7104 52.1611 67.7315 53.516 67.6939C54.8332 67.6562 55.3224 68.6728 55.3224 69.8399C55.3601 71.9483 55.3224 74.0943 55.3224 76.2027C55.3977 76.2403 55.473 76.2403 55.5859 76.2403Z" fill="#01BDE0"/>
<path d="M3.98921 32.7928C3.98921 34.9011 3.98921 37.0472 3.98921 39.1555C3.98921 40.3603 3.49997 41.3016 2.14513 41.2639C0.903193 41.2263 0.451581 40.3227 0.489215 39.1932C0.526849 34.9388 0.564484 30.6844 0.639753 26.43C0.677387 25.2629 1.20427 24.4346 2.4462 24.5099C3.65051 24.5852 4.10212 25.4135 4.10212 26.5806C4.06448 28.6513 4.10212 30.7221 4.10212 32.7551C4.06448 32.7928 4.02685 32.7928 3.98921 32.7928Z" fill="#01BDE0"/>
<path d="M54.4569 34.5247C54.4569 36.2189 54.4192 37.9131 54.4569 39.6073C54.4945 40.8121 54.2311 41.8287 52.8386 41.8663C51.4838 41.904 51.0698 41.0004 51.0321 39.7579C50.9569 36.2565 50.844 32.7551 50.7311 29.2537C50.6934 27.9736 51.1074 26.9195 52.5375 26.8818C53.8547 26.8442 54.2687 27.936 54.3063 29.1031C54.344 30.9103 54.3063 32.7175 54.3063 34.5623C54.344 34.5247 54.4192 34.5247 54.4569 34.5247Z" fill="#01BDE0"/>
<path d="M0.188172 74.5461C0.188172 72.7766 0.188172 71.0447 0.188172 69.2752C0.188172 68.0704 0.60215 67.0915 1.95699 67.1668C3.16129 67.2044 3.6129 68.0704 3.6129 69.2375C3.57527 72.8142 3.57527 76.3533 3.53763 79.93C3.53763 81.1348 3.08602 82.1513 1.76882 82.1513C0.301075 82.1513 0 81.0595 0 79.7794C0 78.0099 0 76.278 0 74.5085C0.0752688 74.5461 0.150538 74.5461 0.188172 74.5461Z" fill="#01BDE0"/>
<path d="M54.8709 53.3494C54.8709 54.2153 54.9086 55.1189 54.8709 55.9848C54.8333 57.0014 54.2311 57.6414 53.2526 57.6791C52.3494 57.7167 51.6344 57.1896 51.5591 56.286C51.4086 54.2906 51.3333 52.2952 51.3709 50.2997C51.3709 49.3962 52.0483 48.8314 52.9892 48.7938C53.9677 48.7561 54.5698 49.3209 54.7204 50.1868C54.8709 51.2033 54.8333 52.2952 54.8709 53.3494Z" fill="#01BDE0"/>
<path d="M0.827878 10.0524C0.827878 9.1112 0.752609 8.16996 0.827878 7.22872C0.903147 6.24984 1.5053 5.57214 2.52143 5.57214C3.53756 5.57214 4.21498 6.24984 4.21498 7.22872C4.25261 9.14885 4.21497 11.1066 4.10207 13.0268C4.06444 13.968 3.42465 14.4951 2.48379 14.4951C1.43003 14.4951 0.865513 13.855 0.752609 12.8762C0.677341 11.9349 0.714975 10.9937 0.714975 10.0524C0.790244 10.0524 0.827878 10.0524 0.827878 10.0524Z" fill="#01BDE0"/>
<path d="M3.65045 55.7966C3.65045 56.7755 3.68809 57.792 3.65045 58.7709C3.57519 59.7498 2.89777 60.2016 1.99454 60.2016C1.05368 60.2016 0.376262 59.6368 0.300993 58.7709C0.225724 56.7755 0.225724 54.78 0.338627 52.7846C0.376262 51.881 1.09132 51.3163 1.99454 51.3163C2.97304 51.3163 3.65045 51.9187 3.68809 52.9352C3.72572 53.8765 3.68809 54.8177 3.68809 55.7213C3.72572 55.7966 3.68809 55.7966 3.65045 55.7966Z" fill="#01BDE0"/>
<path d="M56.0376 99.056C56.0376 99.9219 56.0752 100.788 56.0376 101.691C55.9999 102.708 55.4354 103.348 54.4193 103.423C53.4031 103.461 52.6881 102.821 52.6505 101.88C52.5376 99.9596 52.4999 98.0018 52.5376 96.0817C52.5376 95.1404 53.215 94.6133 54.1182 94.538C55.1343 94.5004 55.7741 95.0651 55.887 96.0817C55.9623 97.0605 55.887 98.0771 55.887 99.0936C55.9246 99.056 55.9623 99.056 56.0376 99.056Z" fill="#01BDE0"/>
</svg>
