<svg width="102" height="102" viewBox="0 0 102 102" fill="none" xmlns="http://www.w3.org/2000/svg">
<path d="M70.7926 46.4182C65.0852 53.9861 57.8594 59.5184 48.5914 62.1802C48.3819 62.2324 48.1725 62.2846 47.963 62.3368C46.8635 62.65 45.9209 62.389 45.6591 61.1886C45.3973 60.0926 46.1828 59.5184 47.23 59.2575C51.7331 58.1614 55.7125 56.0738 59.4302 53.3598C65.8183 48.7147 70.3737 42.556 73.6725 35.4579C73.8296 35.1447 73.9343 34.8838 74.0914 34.5706C74.5626 33.5268 75.1386 32.6395 76.4476 33.2658C77.7043 33.8921 77.4425 34.936 76.9713 35.9276C75.5575 39.0592 73.9343 42.0863 71.9446 44.9047C71.5257 45.4788 71.1591 45.9485 70.7926 46.4182Z" fill="#01BDE0"/>
<path d="M79.2752 64.1115C79.6941 64.4769 80.0083 64.9988 79.8512 65.5729C79.6418 66.408 79.0134 66.7733 78.228 66.9821C74.458 67.8172 70.688 68.4435 66.8656 68.7044C60.4251 69.1742 54.037 68.9132 47.7013 67.7128C47.3871 67.6606 47.073 67.5562 46.7588 67.504C45.6068 67.2953 44.8738 66.669 45.188 65.4685C45.4498 64.3203 46.3923 64.1637 47.4395 64.4247C50.5288 65.1554 53.7229 65.5207 56.8645 65.6773C63.5144 66.0427 70.112 65.5207 76.6048 64.1115C77.4949 63.9028 78.3851 63.4852 79.2752 64.1115Z" fill="#01BDE0"/>
<path d="M82.8358 49.6022C77.7044 55.6042 71.6829 60.4581 63.9334 62.9111C63.2003 63.1199 62.4673 63.3287 61.6818 63.433C60.687 63.5896 59.9015 63.2765 59.6921 62.2326C59.4827 61.1888 60.111 60.6147 61.1059 60.4059C66.0802 59.3099 70.3215 56.8569 74.2486 53.6731C76.7096 51.6898 78.8564 49.4978 80.7937 47.0447C81.2126 46.5228 81.6315 46.0531 82.1028 45.5834C82.7311 45.0093 83.4642 45.0614 84.0402 45.5834C84.6685 46.1053 84.8256 46.7838 84.3543 47.4623C83.9354 48.193 83.4118 48.8193 82.8358 49.6022Z" fill="#01BDE0"/>
<path d="M94.4077 58.5791C95.3502 59.2054 95.3502 60.5624 94.303 61.1365C91.0042 62.9632 87.4436 64.268 83.883 65.364C82.9929 65.625 82.2075 65.2597 81.9457 64.3202C81.6839 63.3807 82.1551 62.7022 82.9929 62.3891C84.9303 61.6584 86.8676 60.9799 88.805 60.197C90.0617 59.6751 91.3183 59.101 92.5227 58.5269C93.151 58.2659 93.7793 58.1093 94.4077 58.5791Z" fill="#01BDE0"/>
<path d="M88.1243 42.1907C87.4436 43.0779 86.6581 43.4433 85.768 42.817C84.9826 42.2951 84.8255 41.46 85.4015 40.6771C85.9774 39.842 86.1869 38.6938 87.4959 38.5894C88.1766 38.5372 88.6479 38.9026 88.962 39.4767C89.4856 40.6249 88.3861 41.3034 88.1243 42.1907Z" fill="#01BDE0"/>
<path d="M76.343 28.673C76.919 27.8379 77.652 27.6292 78.4898 28.0989C79.3799 28.6208 79.4847 30.03 78.7516 30.9695C78.1756 31.7001 77.3379 31.9089 76.6048 31.3348C75.5576 30.5519 75.8717 29.5603 76.343 28.673Z" fill="#01BDE0"/>
<path d="M101.633 56.8567C100.9 57.9006 99.3295 58.3181 98.6488 57.6918C97.9681 57.0655 97.8111 56.2304 98.4394 55.4997C99.1725 54.7169 100.115 53.934 101.319 54.7169C102.157 55.2388 102.157 56.0217 101.633 56.8567Z" fill="#01BDE0"/>
<path d="M52.7803 78.8818C53.0421 79.2472 53.2515 79.6125 53.4086 79.9779C53.3039 79.6125 53.0944 79.2472 52.7803 78.8818Z" fill="#525252"/>
<path d="M50.7905 92.8172C50.6334 92.9216 50.4763 93.0781 50.3716 93.1825L50.4239 93.1303C51.2094 92.6606 51.7853 92.0343 51.9424 91.1992C51.7853 91.7733 51.3665 92.3474 50.7905 92.8172Z" fill="#525252"/>
<path d="M45.2927 40.4162C42.8841 37.8588 40.2136 35.6145 37.7527 33.1093C33.8256 29.1427 29.6366 25.2805 31.0504 19.4872C31.1551 15.5206 30.7362 12.2847 30.0032 9.10097C29.4796 6.80452 28.7989 4.56026 27.9611 2.36819C27.5945 1.37654 26.9662 0.698046 25.8666 1.11558C24.6623 1.53312 24.6623 2.52477 25.0812 3.56861C25.2383 3.93395 25.343 4.2993 25.5001 4.66464C27.2804 10.0404 28.5371 15.5206 27.8564 21.2095C27.5945 23.3494 28.1705 25.3327 29.113 27.2116C30.841 30.7085 33.5637 33.4225 36.3389 36.0843C38.6428 38.2763 40.9991 40.4162 43.1982 42.7127C44.8738 44.4872 44.7167 45.4788 42.8317 47.0446C41.418 48.245 39.8471 49.0801 38.1192 49.7064C36.7578 50.2283 36.3913 51.0112 36.7578 52.3682C37.072 53.5686 37.3861 54.7168 37.8574 55.8651C38.0145 56.387 38.2763 56.8567 38.5904 57.483C38.957 58.1093 38.8522 58.2137 38.2763 58.3703C37.1767 58.6834 34.8728 59.1532 33.9826 59.8317C32.6212 60.8755 32.0453 62.3891 32.2023 63.8505C32.3071 64.8943 32.7783 65.8859 33.6161 66.6688C33.7732 66.8254 33.9303 66.9298 34.0874 67.0342C35.0299 67.7127 36.0771 68.1302 37.1767 68.5999C37.1243 68.9653 36.8625 69.3306 36.6531 69.5394C35.6582 70.3223 34.7157 71.1051 33.7732 71.9402C32.883 72.7231 32.6212 73.6104 32.9878 74.863C33.8779 77.7335 34.1397 80.6563 33.5637 83.579C32.9878 86.5018 31.1028 88.4851 28.5894 88.6939C27.3851 88.7983 26.1808 88.7983 24.9765 88.5373C18.8502 87.2325 12.7763 85.9799 6.64999 84.7273C5.13151 84.4141 3.66539 84.101 2.14691 83.84C1.15204 83.6834 0.36662 83.9444 0.104813 84.9882C-0.104633 86.0321 0.471343 86.6062 1.46621 86.8671C1.72802 86.9193 1.98982 86.9715 2.25163 87.0759C5.02678 87.65 7.80194 88.2241 10.6295 88.7461C11.4149 88.9026 11.9909 89.0592 11.2054 89.9465C9.05861 92.4517 8.16847 95.4266 7.48777 98.5582C7.27832 99.6542 7.27833 100.646 8.48264 100.959C9.79167 101.272 10.3153 100.385 10.5247 99.2367C10.9436 97.2534 11.5196 95.3223 12.4621 93.5477C13.9282 90.8859 15.918 89.9987 18.9026 90.625C21.2065 91.0947 23.5104 91.5644 25.8666 91.8776C31.2075 92.6083 35.2393 89.8421 36.496 84.6229C37.229 81.4914 37.072 78.3076 36.2865 75.2283C36.0771 74.341 36.1818 73.8191 36.9149 73.245C37.8574 72.5665 38.7999 71.7836 39.69 71.0529C39.8471 70.9486 40.0042 70.792 40.1089 70.6876C40.6849 70.2179 41.1038 69.6438 41.2609 69.0696C41.2609 68.9131 41.3132 68.7565 41.3132 68.5999C41.3132 67.4517 40.5802 66.7732 39.5853 66.3035C38.6952 65.8859 37.805 65.5728 36.9149 65.1553C36.1818 64.7899 35.2393 64.5289 35.2917 63.3807C35.2917 63.0676 35.3964 62.8588 35.5011 62.65C35.8153 62.1281 36.4436 61.9193 37.0196 61.7106C37.1767 61.6584 37.2814 61.6062 37.4909 61.554C38.5904 61.2408 40.3707 60.9799 41.1562 60.6145C42.4652 60.0404 43.0412 58.9966 42.6746 57.9527C42.5175 57.5874 42.3081 57.2221 42.0463 56.8567C41.8892 56.5958 41.6798 56.387 41.4703 56.0738C40.8943 55.3431 40.5278 54.4559 40.1613 53.6208C39.7948 52.7335 40.0566 52.2638 40.8943 51.8463C42.151 51.2722 43.303 50.5937 44.4026 49.7064C48.1202 46.7315 48.4344 43.8087 45.2927 40.4162Z" fill="white"/>
</svg>
