<svg width="81" height="107" viewBox="0 0 81 107" fill="none" xmlns="http://www.w3.org/2000/svg">
<path d="M79.2113 34.7699C77.9623 32.4188 75.5301 31.1273 72.9335 31.4254C70.2055 31.7234 68.3978 33.5447 67.6089 36.7237C67.3789 37.6178 64.4537 40.3332 63.6648 40.3001C63.4676 40.3001 63.2375 40.1676 63.1061 40.0352C60.5424 37.7172 57.8144 35.5978 54.5933 33.4122C59.392 32.3857 61.9886 29.7365 62.5802 25.2992C62.7117 24.2726 63.0075 23.4778 63.7306 22.6831C65.1767 21.1267 65.3739 19.2061 63.9606 17.9477C62.4159 16.59 62.4159 15.0005 62.2186 13.2454C61.6599 8.11265 59.8193 3.7084 54.7905 1.45661C51.3394 -0.0997816 47.6911 -0.199126 43.9771 0.231365C42.9582 0.363823 42.1036 0.761199 42.2351 1.98644C42.3666 3.27791 43.2211 3.07922 44.3057 2.94677C46.1792 2.71496 48.1184 2.64873 49.9919 2.84742C54.6262 3.37726 57.8472 6.15889 58.9976 10.6956C59.4578 12.4838 59.9179 14.4044 59.8522 16.2589C59.8193 17.5834 60.1151 18.61 61.4298 19.2061C62.383 19.6366 62.7445 20.63 61.9886 21.3254C61.5284 21.7228 60.8053 22.2857 60.7396 22.948C60.5753 24.9349 59.0633 24.0077 58.0116 23.6434C57.4857 23.4447 56.4668 22.8818 55.9738 22.65C55.0864 22.2526 54.3304 22.4513 53.8702 23.3123C53.4101 24.2064 54.0675 24.6037 54.8891 25.0674C55.6451 25.4978 56.4668 25.7959 57.2885 26.127C57.8801 26.3588 59.0305 26.9218 59.162 27.5178C59.2934 28.3457 58.4389 28.9418 57.8144 29.4385C57.0913 30.0346 56.2039 30.3326 55.2836 30.5644C53.673 30.9618 51.5366 30.6637 49.8933 30.6306C48.5128 30.6306 47.8555 30.4982 47.6911 32.2863C47.6911 32.3857 47.6583 32.5182 47.6583 32.6175L51.5038 34.6375L51.5695 34.6706C52.4569 35.0349 53.2458 35.8627 54.1332 36.3926C54.4947 36.6244 54.8563 36.8893 55.2178 37.1542C57.913 39.0749 57.5843 39.406 55.8423 42.287C54.2318 44.9361 54.2318 44.9361 51.5366 43.4129C51.4052 43.3466 51.2737 43.2142 51.1094 43.1811C50.1562 42.8168 49.3345 42.9824 48.9072 43.9758C48.2827 45.4329 47.6583 46.923 47.0995 48.4132C46.7708 49.2742 46.9352 50.102 47.8883 50.4663C48.9072 50.8637 49.5646 50.3669 49.9919 49.4397C50.1233 49.1417 50.2877 48.8437 50.3534 48.5125C50.7149 46.7906 51.4709 46.9561 52.687 47.784C55.3164 49.5722 58.0116 51.261 60.7396 52.9168C63.1389 54.4069 65.8012 54.3076 67.7404 52.4201C71.3887 48.9099 74.9385 45.3335 78.4224 41.6578C80.2959 39.7371 80.4602 37.088 79.2113 34.7699ZM76.4832 40.4326C73.2951 43.6116 70.0083 47.5522 66.8201 50.7312C65.4397 52.122 63.632 51.8571 62.0214 50.8637C60.5424 49.9365 58.6361 48.6119 57.1242 47.7178C56.4339 47.2873 56.0724 46.1614 56.5983 45.3998C57.3542 44.307 58.0444 43.1811 58.6689 42.0221C59.162 41.0948 60.4109 41.0948 61.0025 41.7903C61.2655 42.0883 61.5942 42.287 61.8571 42.585C62.876 43.7771 63.3033 43.2804 64.4865 42.3201C64.9467 41.9227 65.5054 41.5584 65.9984 41.2273C68.0691 39.8365 69.6139 39.0417 69.9754 35.8627C70.1398 34.3063 72.8678 33.1804 74.2811 33.4122C75.7601 33.6441 77.7322 35.7634 77.7322 37.2535C77.6336 38.1808 77.1077 39.8034 76.4832 40.4326Z" fill="white"/>
<path d="M54.7577 91.2636C55.0863 91.8927 55.1521 91.9921 55.415 92.5881C55.415 92.6544 56.1381 92.9193 56.1052 92.9855L56.6311 93.2504C56.8612 92.9524 56.6311 95.4691 57.0255 95.4691C57.9787 95.4691 58.7675 94.7737 59.9508 94.8068C62.8431 94.873 65.7355 94.8399 69.088 94.8399C64.848 98.913 60.2794 101.33 55.1192 102.721C54.3304 102.92 54.0674 102.622 53.8374 101.926C53.6073 101.132 53.443 100.006 53.1143 99.8734C52.7856 99.7409 51.7338 100.105 51.7338 100.105C51.7338 100.105 50.4849 100.469 50.4849 101.065C50.4849 101.662 51.0765 102.887 51.2737 103.847C51.6024 105.635 53.3443 106.364 55.1849 105.9C61.0354 104.443 66.2614 101.794 70.6656 97.6216C71.7831 96.5619 72.4076 95.3698 71.816 93.7803C71.2244 92.2239 69.9754 91.7272 68.4306 91.7272C65.5711 91.7603 62.7445 91.6278 59.885 91.7603C58.3074 91.8265 57.5514 91.2635 56.9927 89.8396C55.9409 87.2236 54.1332 85.2698 52.9828 82.72C52.5555 81.7596 52.4241 81.4947 51.438 81.859C50.6163 82.1901 50.9121 82.6869 51.3723 83.4154C51.7667 84.0446 51.8324 84.177 51.7667 84.5744L53.1143 87.6209C54.0674 87.8196 54.1332 90.0383 54.7577 91.2636Z" fill="white"/>
<path d="M50.6163 76.4944C50.6163 76.4944 44.4043 63.4141 44.3385 62.7187C44.2728 62.0233 47.7239 54.5063 47.7239 54.5063C47.8883 54.1089 47.461 53.5128 46.7379 53.2148C46.0148 52.9168 45.3246 53.0161 45.1274 53.4135L41.4791 62.2882C41.3147 62.6856 41.2161 63.1492 42.0049 64.3413L48.0855 77.6534C48.3484 78.2495 49.1372 78.4813 49.8603 78.1501C50.5505 77.8521 50.8792 77.0905 50.6163 76.4944Z" fill="white"/>
<path d="M58.5044 93.3165C58.8331 94.0119 58.4387 94.906 57.6498 95.3034C56.861 95.6677 55.9407 95.4028 55.612 94.7074L50.3203 83.2828C49.9917 82.5874 50.3861 81.6933 51.1749 81.2959C51.9637 80.9317 52.884 81.1966 53.2127 81.892L58.5044 93.3165Z" fill="white"/>
<path d="M2.07078 46.8567C1.18335 47.0885 0.295922 46.5586 0.0658477 45.6977C-0.164226 44.8036 0.361657 43.9095 1.21622 43.6777L33.7552 34.9354C34.6427 34.7036 35.5301 35.2334 35.7602 36.0944C35.9903 36.9885 35.4644 37.8826 34.6098 38.1144L2.07078 46.8567Z" fill="#01BDE0"/>
<path d="M13.0815 54.6719C12.4898 54.8375 11.8325 54.2414 11.5695 53.3473C11.3395 52.4532 11.6353 51.6254 12.2269 51.4598L34.2483 45.5323C34.8399 45.3667 35.4972 45.9628 35.7602 46.8568C35.9903 47.7509 35.6944 48.5788 35.1028 48.7444L13.0815 54.6719Z" fill="#01BDE0"/>
<path d="M22.35 61.0299C21.9556 61.1292 21.4626 60.5 21.1996 59.6059C20.9696 58.7118 21.101 57.9171 21.4954 57.8177L36.0887 53.9102C36.4831 53.8109 36.9761 54.44 37.2391 55.3341C37.4692 56.2282 37.3377 57.023 36.9433 57.1223L22.35 61.0299Z" fill="#01BDE0"/>
</svg>
