<svg width="47" height="110" viewBox="0 0 47 110" fill="none" xmlns="http://www.w3.org/2000/svg">
<path d="M30.7796 18.5393C29.379 24.3539 33.5156 28.2304 37.3915 32.2054C39.8344 34.702 42.5052 36.9688 44.8503 39.5312C47.9771 42.882 47.6514 45.8386 44.1012 48.7623C43.0263 49.6165 41.8538 50.3392 40.6486 50.8976C39.7692 51.2919 39.5412 51.7846 39.8995 52.6716C40.2578 53.5257 40.5835 54.3799 41.1698 55.1354C42.7006 57.0737 43.0589 58.1906 41.5606 59.9317C39.6715 62.1327 39.4109 64.1366 40.7138 66.6333C41.3326 67.816 40.7463 68.9658 39.7366 69.8199C38.6944 70.674 37.6521 71.561 36.5447 72.3823C35.8281 72.9079 35.6978 73.4664 35.9258 74.3533C36.675 77.4742 36.8378 80.6279 36.1213 83.7816C34.9161 89.0049 30.9099 91.7973 25.6008 91.0417C23.2883 90.7132 21.0083 90.2533 18.7283 89.7934C15.7969 89.202 14.2987 90.4175 12.3444 92.7171C9.60843 95.9365 9.11987 103.197 8.72902 105.201C8.50102 106.35 7.91474 109.34 6.6119 109.011C5.40677 108.716 5.47191 105.66 5.69991 104.576C6.35133 101.456 7.10047 93.8341 11.0416 89.1692C11.7907 88.2822 11.237 88.118 10.4879 87.9537C7.71931 87.3952 4.95078 86.8368 2.21481 86.2454C1.95424 86.1797 1.69367 86.1469 1.43311 86.0483C0.455975 85.7855 -0.130303 85.2271 0.0976938 84.1758C0.325691 83.1246 1.13997 82.8618 2.1171 83.026C3.61537 83.2888 5.11363 83.5845 6.57933 83.913C12.6375 85.1942 18.6632 86.4754 24.7214 87.7566C25.8939 88.0194 27.0991 88.0194 28.2716 87.9209C30.7796 87.6909 32.6362 85.687 33.2224 82.7632C33.8087 79.7738 33.5156 76.85 32.6687 73.992C32.2779 72.7436 32.6036 71.8238 33.4504 71.0682C34.5904 70.0498 35.7304 69.0315 36.9681 68.1445C38.2384 67.2246 37.3264 66.3048 37.0658 65.385C36.7401 64.2352 35.9584 64.8265 35.3721 65.0236C34.3298 65.3521 33.3527 65.812 32.3104 66.1406C31.3333 66.4691 30.3888 66.4362 30.0305 65.2864C29.6722 64.2023 30.2585 63.5453 31.2682 63.184C32.7013 62.6912 34.1344 62.1327 35.5675 61.64C36.2841 61.3772 36.9355 61.0158 37.4567 60.4245C39.3458 58.4205 39.3784 58.2563 38.0429 55.9239C37.2287 54.5441 36.8704 53.0001 36.447 51.4561C36.0887 50.1092 36.447 49.2879 37.7824 48.7623C39.4435 48.1053 41.0395 47.284 42.44 46.1014C44.2966 44.4917 44.492 43.5061 42.7983 41.7322C40.6161 39.4326 38.3035 37.2973 36.0235 35.0963C33.2876 32.4353 30.6167 29.7087 28.8579 26.2265C27.9134 24.3539 27.3596 22.35 27.6202 20.2147C28.2716 14.4658 27.0665 9.01248 25.3077 3.62489C25.0797 3.29638 24.9494 2.93502 24.8191 2.57366C24.4283 1.52242 24.4283 0.569739 25.6334 0.109824C26.7082 -0.28439 27.3271 0.438335 27.6854 1.39102C28.5322 3.59204 29.1836 5.82592 29.7373 8.1255C30.4865 11.3449 30.9099 14.5972 30.7796 18.5393Z" fill="white"/>
<path d="M5.08101 91.1731C6.12328 90.8446 7.13298 91.6659 6.93756 92.8156C6.31871 96.3964 5.17872 99.8458 3.84331 103.229C3.5176 104.084 2.76847 104.412 1.92162 104.051C1.0422 103.689 0.846774 102.934 1.10734 102.08C1.69362 100.174 2.37761 98.3018 2.96389 96.3636C3.35474 95.1152 3.61531 93.8012 3.94102 92.5528C4.13645 91.9287 4.39702 91.3702 5.08101 91.1731Z" fill="#01BDE0"/>
<path d="M11.9536 106.744C10.9113 107.073 9.90163 106.285 10.0645 105.135C10.6508 101.521 11.7256 98.0718 12.9959 94.6552C13.3216 93.8011 14.0382 93.4726 14.9176 93.8011C15.797 94.1625 16.025 94.8852 15.7644 95.7722C15.1781 97.6775 14.5593 99.5829 14.0056 101.488C13.6473 102.737 13.3867 104.051 13.0936 105.332C12.9307 105.989 12.6702 106.547 11.9536 106.744Z" fill="#01BDE0"/>
</svg>
