<svg width="71" height="71" viewBox="0 0 71 71" fill="none" xmlns="http://www.w3.org/2000/svg">
<path d="M51.0849 35.4817C53.027 30.4678 52.7538 22.1309 48.9139 20.1445C44.1732 17.693 39.0854 22.9063 35.5041 22.9063C33.3183 22.9063 30.5714 20.9642 27.6915 20.0116C27.6841 20.0116 27.6693 20.0042 27.6619 19.9969C17.0802 15.4481 1.41815 23.6004 0.0151367 34.9058C0.332661 15.5737 16.0981 0.00756836 35.5041 0.00756836C36.5379 0.00756836 37.5569 0.0518755 38.5685 0.140487C53.891 3.67757 57.9892 22.6035 51.0849 35.4817Z" fill="url(#paint0_linear_206_249)"/>
<path d="M50.4938 67.6844C45.9377 69.8111 40.8573 71 35.4963 71C15.891 71 0 55.1016 0 35.4963C0 35.2969 -1.80292e-06 35.0975 0.00738249 34.8982C1.4104 23.5928 17.0799 15.4405 27.6542 19.9966C25.8155 19.3911 23.9251 19.1918 22.0864 20.1369C17.8405 22.3301 17.9512 32.2841 20.6022 36.9362C21.2003 37.9848 21.4809 39.1958 21.444 40.4068C21.3037 44.5716 22.3301 49.8883 24.3017 53.7429C24.3017 53.7503 24.3091 53.7576 24.3165 53.7724C27.8019 61.5259 39.6241 71.1994 50.4938 67.6844Z" fill="url(#paint1_linear_206_249)"/>
<path d="M71 35.5038C71 49.7407 62.6189 62.0282 50.5086 67.6845C50.5012 67.6845 50.4939 67.6845 50.4939 67.6919C39.6242 71.1995 27.7945 61.5334 24.3165 53.7873C24.73 54.5922 25.1879 55.338 25.6752 55.9878C26.6943 57.3317 28.8726 56.5712 28.9022 54.9245C29.0129 48.766 30.2387 43.8702 35.4964 43.213C40.7614 43.8628 41.9872 48.7586 42.0979 54.9245C42.1275 56.5712 44.3058 57.3317 45.3249 55.9878C48.1752 52.2071 49.7259 45.4726 49.5561 40.4217C49.5117 39.2107 49.7923 37.9997 50.3979 36.9511C50.6489 36.5154 50.8705 36.0281 51.0772 35.5038C51.0772 35.4964 51.0846 35.489 51.0846 35.4816C57.9889 22.6034 53.8906 3.67746 38.5682 0.140381C56.741 1.69108 71 16.9323 71 35.5038Z" fill="url(#paint2_linear_206_249)"/>
<path d="M27.6902 20.0111C27.683 20.0111 27.6687 20.0039 27.6615 19.9967L27.6902 20.0111Z" fill="url(#paint3_linear_206_249)"/>
<path d="M35.5037 43.2203C30.2387 43.8701 29.0203 48.7659 28.9095 54.9318C28.88 56.5785 26.7016 57.3391 25.6826 55.9878C22.8322 52.207 21.2815 45.4725 21.4514 40.4217C21.4957 39.2106 21.2151 37.9996 20.617 36.951C17.9734 32.2989 17.8552 22.3375 22.1012 20.1518C26.8419 17.7076 31.9297 22.9135 35.5111 22.9135C39.0925 22.9135 44.1802 17.7076 48.921 20.1518C53.1669 22.3449 53.0562 32.3063 50.4052 36.951C49.8071 38.007 49.5265 39.2106 49.5708 40.4217C49.7406 45.4725 48.1899 52.207 45.3396 55.9878C44.3205 57.3391 42.1422 56.5711 42.1126 54.9318C41.9871 48.7659 40.7687 43.8701 35.5037 43.2203Z" fill="white"/>
<path opacity="0.2" d="M50.4938 67.6844C45.9377 69.8111 40.8573 71 35.4963 71C22.2267 71 10.6481 63.7117 4.56348 52.9232C10.1829 61.3118 25.1066 65.3584 34.3591 64.7824C39.1663 67.8395 44.9556 69.4788 50.4938 67.6844Z" fill="white"/>
<path d="M50.4938 67.6844C50.1172 67.8764 49.7258 68.0536 49.3197 68.2013C48.4483 68.5336 47.5253 68.7699 46.5875 68.9102C45.2214 69.1096 43.811 69.1096 42.4301 68.9324C39.661 68.5779 36.9953 67.5663 34.6176 66.1633C32.225 64.7529 30.091 62.9511 28.2966 60.8687C27.4031 59.8275 26.5982 58.7125 25.9115 57.531C25.2321 56.3421 24.6561 55.0942 24.3091 53.7798C27.8019 61.5259 39.6241 71.1993 50.4938 67.6844Z" fill="url(#paint4_linear_206_249)"/>
<path opacity="0.2" d="M26.3768 69.8185C11.1947 65.7867 0.00744629 51.9559 0.00744629 35.5037C0.00744629 35.3043 0.00744899 35.105 0.0148333 34.9056C0.812337 28.4517 6.26195 23.0243 12.7601 20.4028C8.25571 37.4753 12.5386 62.5746 26.3768 69.8185Z" fill="white"/>
<path opacity="0.2" d="M27.6543 20.004C25.8156 19.3985 23.9252 19.1991 22.0865 20.1443C20.9124 20.7498 20.078 21.9461 19.5315 23.4525C12.1251 22.7879 2.26704 28.0824 0.00744629 34.8981C1.41785 23.6002 17.0799 15.4479 27.6543 20.004Z" fill="black"/>
<path opacity="0.2" d="M38.5685 0.140487C27.5733 0.273404 16.172 7.15557 12.7604 20.4104C6.26225 23.0244 0.812641 28.4519 0.0151367 34.9058C0.332661 15.5737 16.0981 0.00756836 35.5041 0.00756836C36.5379 0.00756836 37.5569 0.0518755 38.5685 0.140487Z" fill="white"/>
<path d="M27.6544 20.004C17.08 15.4479 1.41795 23.6002 0.0149379 34.9055C0.000169326 34.4699 0.0149361 34.0342 0.0592419 33.6059C0.155238 32.5352 0.41369 31.4718 0.790289 30.4528C1.31457 29.0129 2.08254 27.6542 3.00558 26.4136C4.85904 23.9399 7.32539 21.9461 10.0502 20.5135C12.775 19.081 15.8026 18.1875 18.8744 18.0176C20.4104 17.9364 21.9611 18.0324 23.4527 18.3499C24.9443 18.6748 26.3916 19.2065 27.6544 20.004Z" fill="url(#paint5_linear_206_249)"/>
<path opacity="0.2" d="M71.0001 35.5037C71.0001 49.7406 62.6189 62.0281 50.5087 67.6844C50.5013 67.6844 50.4939 67.6844 50.4939 67.6918C44.9483 69.4788 39.1664 67.8469 34.3593 64.7898C58.7422 59.9014 68.5633 33.7093 64.7161 15.3372C68.6815 21.0526 71.0001 28.0086 71.0001 35.5037Z" fill="white"/>
<path opacity="0.2" d="M50.4939 67.6845C39.6242 71.192 27.7945 61.526 24.3165 53.7799C24.73 54.5847 25.1879 55.3306 25.6752 55.9804C26.6943 57.3243 28.8726 56.5637 28.9022 54.917C28.9317 53.1891 29.0499 51.5572 29.3231 50.0951C31.3464 59.7464 41.8321 68.3638 50.4939 67.6845Z" fill="black"/>
<path opacity="0.2" d="M53.7207 16.467C43.0651 7.67228 27.5433 4.40843 10.6628 10.146C17.065 3.86937 25.8302 0 35.5036 0C36.5374 0 37.5564 0.0443071 38.5681 0.132919C47.0305 2.08976 52.0666 8.73562 53.7207 16.467Z" fill="white"/>
<path opacity="0.2" d="M68.2234 49.2976C68.4745 35.7252 62.8994 24.0507 53.7207 16.4744C52.0666 8.74303 47.0305 2.09716 38.5681 0.147705C56.7409 1.69841 70.9999 16.9396 70.9999 35.5111C70.9999 40.3921 70.0178 45.059 68.2234 49.2976Z" fill="white"/>
<path d="M54.9908 25.2987C54.4591 28.9539 53.1669 32.5131 51.0845 35.4816C57.9888 22.6034 53.8905 3.67746 38.5681 0.140381C40.3699 0.332373 42.1569 0.827119 43.8405 1.59509C45.5241 2.37044 47.0896 3.42639 48.4705 4.69649C51.2396 7.25146 53.1669 10.6482 54.2228 14.2296C55.2862 17.8258 55.5225 21.6361 54.9908 25.2987Z" fill="url(#paint6_linear_206_249)"/>
<path opacity="0.2" d="M51.0845 35.4816C52.7607 31.147 52.7903 24.3239 50.2796 21.2742C51.0845 13.8308 47.481 4.17953 38.5681 0.132935C53.8905 3.6774 57.9888 22.6033 51.0845 35.4816Z" fill="black"/>
<path opacity="0.1" d="M45.3025 24.4864C41.891 24.9516 36.6407 23.7184 33.6279 22.5443C33.6796 22.5591 33.7313 22.5812 33.783 22.596C33.8347 22.6108 33.8864 22.6255 33.9307 22.6403C33.9676 22.6551 34.0045 22.6624 34.0414 22.6772C34.1005 22.692 34.167 22.7141 34.2261 22.7289C34.2704 22.7363 34.3147 22.7511 34.359 22.7584C34.3959 22.7658 34.4402 22.7806 34.4771 22.788C34.514 22.7954 34.5583 22.8027 34.5953 22.8101C34.6765 22.8249 34.7503 22.8397 34.8316 22.8544C34.9571 22.8766 35.0753 22.8914 35.1934 22.8987C35.2229 22.8987 35.2525 22.9061 35.2746 22.9061C35.2894 22.9061 35.2968 22.9061 35.3116 22.9061C35.3337 22.9061 35.3632 22.9061 35.3854 22.9061C35.4223 22.9061 35.4666 22.9061 35.5035 22.9061C35.5257 22.9061 35.5478 22.9061 35.5774 22.9061C36.5669 22.8914 37.6671 22.4852 38.8412 21.9609C38.8412 21.9609 38.8412 21.9609 38.8486 21.9609C39.4615 23.172 41.7359 24.1024 45.3025 24.4864Z" fill="#231F20"/>
<path opacity="0.1" d="M39.8456 45.5463C38.8561 44.2836 37.4604 43.4566 35.5036 43.2203C35.2156 43.2572 34.935 43.3015 34.6692 43.3679C33.0963 42.0462 30.7407 41.5588 28.806 41.2043C31.2355 41.2043 37.1651 41.6252 39.8456 45.5463Z" fill="#231F20"/>
<defs>
<linearGradient id="paint0_linear_206_249" x1="-0.220548" y1="17.2055" x2="50.9776" y2="17.9084" gradientUnits="userSpaceOnUse">
<stop stop-color="#00FFFF"/>
<stop offset="1" stop-color="#0071BC"/>
</linearGradient>
<linearGradient id="paint1_linear_206_249" x1="35.78" y1="76.0396" x2="11.1768" y2="26.5988" gradientUnits="userSpaceOnUse">
<stop stop-color="#00FFFF"/>
<stop offset="1" stop-color="#0071BC"/>
</linearGradient>
<linearGradient id="paint2_linear_206_249" x1="62.6199" y1="13.6789" x2="27.8238" y2="58.902" gradientUnits="userSpaceOnUse">
<stop stop-color="#00FFFF"/>
<stop offset="1" stop-color="#0071BC"/>
</linearGradient>
<linearGradient id="paint3_linear_206_249" x1="27.6578" y1="20.0075" x2="27.6869" y2="20.0075" gradientUnits="userSpaceOnUse">
<stop stop-color="#00FFFF"/>
<stop offset="1" stop-color="#0071BC"/>
</linearGradient>
<linearGradient id="paint4_linear_206_249" x1="22.645" y1="56.366" x2="49.24" y2="70.4836" gradientUnits="userSpaceOnUse">
<stop stop-color="#231F20"/>
<stop offset="0.5096" stop-color="white"/>
<stop offset="1" stop-color="#231F20"/>
</linearGradient>
<linearGradient id="paint5_linear_206_249" x1="-2.12683" y1="31.3583" x2="25.9912" y2="17.0065" gradientUnits="userSpaceOnUse">
<stop stop-color="#231F20"/>
<stop offset="0.5096" stop-color="white"/>
<stop offset="1" stop-color="#231F20"/>
</linearGradient>
<linearGradient id="paint6_linear_206_249" x1="43.1651" y1="-1.74974" x2="55.8962" y2="33.8662" gradientUnits="userSpaceOnUse">
<stop stop-color="#231F20"/>
<stop offset="0.5096" stop-color="white"/>
<stop offset="1" stop-color="#231F20"/>
</linearGradient>
</defs>
</svg>
