<svg width="26" height="27" viewBox="0 0 26 27" fill="none" xmlns="http://www.w3.org/2000/svg">
<path d="M15.6088 18.6259C15.6088 18.6259 17.6333 17.4669 18.1633 17.1884C18.6918 16.9089 19.2393 16.8384 19.5718 17.0414C20.0753 17.3494 24.3033 20.1619 24.6593 20.4109C25.0153 20.6604 25.1868 21.3729 24.6973 22.0709C24.2098 22.7689 21.9608 25.5289 21.0078 25.4994C20.0533 25.4684 16.0848 25.3814 8.60125 17.8959C1.11925 10.4129 1.03075 6.44338 1.00025 5.48888C0.969751 4.53488 3.72975 2.28538 4.42775 1.79738C5.12675 1.30988 5.84025 1.49338 6.08825 1.83638C6.37025 2.22688 9.15025 6.44138 9.45625 6.92438C9.66575 7.25438 9.58875 7.80488 9.30925 8.33388C9.03125 8.86388 7.87225 10.8884 7.87225 10.8884C7.87225 10.8884 8.68925 12.2819 11.4523 15.0444C14.2158 17.8074 15.6088 18.6259 15.6088 18.6259Z" stroke="#01BDE0" stroke-width="2" stroke-miterlimit="10"/>
</svg>
