<svg width="17" height="14" viewBox="0 0 17 14" fill="" xmlns="http://www.w3.org/2000/svg">
<path d="M16.2646 2.34775C16.0383 2.51747 15.812 2.6589 15.5574 2.80033C15.5857 3.02662 15.5857 3.2812 15.5857 3.53577C15.5857 6.81697 14.1714 9.78702 11.9368 11.8519C10.183 13.1531 8.00499 13.9168 5.62895 13.9168C3.56406 13.9168 1.6406 13.3228 0 12.3045C0.339434 12.3611 0.678869 12.3894 1.04659 12.3894C2.68719 12.3894 4.18636 11.8236 5.37438 10.8902C3.84692 10.8619 2.54576 9.84359 2.09318 8.42929C2.29118 8.45757 2.51747 8.48586 2.74376 8.48586C3.05491 8.48586 3.33777 8.45757 3.62063 8.37271C2.97005 8.23128 2.40433 7.89185 1.95175 7.43927C1.30116 6.81697 0.905158 5.91181 0.905158 4.95008C0.905158 4.9218 0.905158 4.9218 0.905158 4.89351C1.32945 5.1198 1.78203 5.26123 2.29118 5.3178C1.78203 4.9218 1.35774 4.38436 1.13145 3.76206C0.990017 3.36606 0.905158 2.94176 0.905158 2.51747C0.905158 2.34775 0.905158 2.14975 0.933444 1.98003C1.0183 1.49917 1.18802 1.04659 1.41431 0.678868C1.66889 0.96173 1.95175 1.24459 2.2629 1.52745C2.40433 1.66889 2.57404 1.78203 2.71547 1.92346C3.59235 2.63062 4.58236 3.19634 5.62895 3.62063C5.77038 3.6772 5.88353 3.73378 6.02496 3.76206C6.50582 3.93178 6.98669 4.07321 7.49584 4.15807C7.60899 4.18636 7.72213 4.21464 7.83528 4.21464C7.89185 4.21464 7.92013 4.24293 7.97671 4.24293C8.203 4.27121 8.401 4.2995 8.62729 4.32779C8.57072 4.07321 8.51414 3.79035 8.51414 3.4792C8.51414 2.29118 9.10815 1.24459 10.0133 0.622296C10.0699 0.565724 10.1265 0.537438 10.2113 0.509152C10.2113 0.509152 10.2396 0.509151 10.2396 0.537438V0.509152C10.777 0.198003 11.371 0 12.0499 0C13.0682 0 13.9734 0.424293 14.624 1.13145C14.8503 1.07488 15.1048 1.0183 15.3311 0.96173C15.5857 0.876872 15.812 0.8203 16.0383 0.707155C16.3211 0.59401 16.5757 0.452579 16.8303 0.311148C16.6889 0.735441 16.4626 1.13145 16.1797 1.47088C15.9817 1.69717 15.7554 1.89517 15.5291 2.09318C15.4725 2.12146 15.416 2.17804 15.3594 2.20632C15.3311 2.20632 15.3311 2.20632 15.3028 2.20632C15.3028 2.20632 15.3028 2.20632 15.3028 2.23461L15.3311 2.20632C15.3877 2.20632 15.4443 2.17804 15.5291 2.17804C15.7837 2.14975 16.01 2.09318 16.2646 2.03661C16.5191 1.98003 16.7737 1.89517 17 1.81032C16.7454 1.98003 16.4909 2.14975 16.2646 2.34775Z" fill=""/>
</svg>
