<svg width="21" height="16" viewBox="0 0 21 16" fill="" xmlns="http://www.w3.org/2000/svg">
<path d="M10.8691 1.31247C13.5474 1.31247 15.7376 1.35758 17.7637 1.44781H17.7924H17.8211C18.7686 1.44781 19.5437 2.35014 19.5437 3.46163V3.50675L19.5478 3.55186C19.6422 4.94636 19.6873 6.39417 19.6873 7.85429C19.6914 9.31441 19.6422 10.7622 19.5478 12.1567L19.5437 12.2018V12.247C19.5437 12.813 19.351 13.3379 18.9941 13.7276C18.6742 14.0803 18.2559 14.2772 17.8211 14.2772H17.7883H17.7555C15.5858 14.3797 13.2931 14.433 10.9307 14.433C10.7871 14.433 10.6395 14.433 10.4959 14.433H10.5H10.4959C10.3483 14.433 10.2006 14.433 10.053 14.433C7.68231 14.433 5.38959 14.3797 3.23633 14.2813H3.20352H3.17071C2.73595 14.2813 2.3217 14.0844 2.00179 13.7317C1.64906 13.342 1.45219 12.8171 1.45219 12.2511V12.2059L1.44809 12.1608C1.34966 10.7622 1.30454 9.31441 1.31274 7.8666V7.8625V7.85839C1.30864 6.41058 1.35376 4.96687 1.44809 3.56827L1.45219 3.52315V3.47804C1.45219 2.36244 2.22327 1.45602 3.17071 1.45602H3.19942H3.22813C5.25835 1.36168 7.44853 1.32067 10.1268 1.32067H10.4959H10.8691M10.8691 0C10.7461 0 10.6231 0 10.5 0C10.377 0 10.2539 0 10.1309 0C7.76844 0 5.44701 0.0328118 3.17481 0.135348C1.50141 0.135348 0.143829 1.62418 0.143829 3.46983C0.0412927 4.93816 -0.00382334 6.39827 0.000278123 7.8625C-0.00382334 9.32672 0.0371913 10.7868 0.139728 12.2511C0.139728 14.0967 1.49731 15.5978 3.17071 15.5978C5.4183 15.7045 7.71102 15.7537 10.053 15.7537C10.2006 15.7537 10.3524 15.7537 10.5 15.7537C10.6477 15.7537 10.7953 15.7537 10.9389 15.7537C13.2808 15.7537 15.5735 15.7045 17.8252 15.5978C19.5027 15.5978 20.8603 14.0967 20.8603 12.2511C20.9587 10.7868 21.0038 9.32261 20.9997 7.85839C21.0038 6.39417 20.9587 4.93405 20.8603 3.46573C20.8603 1.62008 19.5027 0.13945 17.8252 0.13945C15.553 0.0328117 13.2357 0 10.8691 0Z" fill=""/>
<path d="M8.49023 11.8858V3.83057L14.4373 7.8582L8.49023 11.8858Z" fill=""/>
</svg>
